<svg width="220" height="48" viewBox="0 0 220 48" fill="none" xmlns="http://www.w3.org/2000/svg">
<path d="M18.84 12.7V34H12.99V25.66H5.85V34H0V12.7H5.85V20.56H12.99V12.7H18.84Z" fill="#CCCCCC"/>
<path d="M30.42 12.7H36.96L43.74 34H37.8L36.51 29.83H30.84L29.58 34H23.61L30.42 12.7ZM35.58 25.93L33.69 18.43L31.71 25.93H35.58Z" fill="#CCCCCC"/>
<path d="M47.4298 38.08V28.9H48.7498C49.2498 28.9 49.6898 28.7 50.0698 28.3C50.4498 27.9 50.7698 27.29 51.0298 26.47C51.2898 25.65 51.4898 24.62 51.6298 23.38C51.7898 22.12 51.8998 20.64 51.9598 18.94L52.1398 12.7H67.5898V28.9H70.5898V38.08H65.4898V34H52.5298V38.08H47.4298ZM55.3798 28.9H61.7398V17.8H57.4798L57.4198 19.78C57.3798 21.32 57.2898 22.68 57.1498 23.86C57.0298 25.02 56.8298 26.02 56.5498 26.86C56.2898 27.7 55.8998 28.38 55.3798 28.9Z" fill="#CCCCCC"/>
<path d="M91.5042 28.9V34H76.3242V12.7H91.2342V17.8H82.1742V20.8H89.9142V25.54H82.1742V28.9H91.5042Z" fill="#CCCCCC"/>
<path d="M161.344 12.7V34H155.494V25.66H148.354V34H142.504V12.7H148.354V20.56H155.494V12.7H161.344Z" fill="#CCCCCC"/>
<path d="M168.004 34V12.7H173.854V19.75H177.334C178.934 19.75 180.304 20.04 181.444 20.62C182.604 21.18 183.494 21.99 184.114 23.05C184.754 24.09 185.074 25.34 185.074 26.8C185.074 28.28 184.774 29.56 184.174 30.64C183.574 31.72 182.714 32.55 181.594 33.13C180.494 33.71 179.174 34 177.634 34H168.004ZM173.854 29.26H176.794C177.314 29.26 177.744 29.16 178.084 28.96C178.424 28.76 178.674 28.48 178.834 28.12C179.014 27.74 179.104 27.3 179.104 26.8C179.104 26.4 179.014 26.03 178.834 25.69C178.654 25.33 178.394 25.04 178.054 24.82C177.714 24.6 177.294 24.49 176.794 24.49H173.854V29.26ZM187.804 34V12.7H193.654V34H187.804Z" fill="#CCCCCC"/>
<path d="M200.421 34V12.7H206.271V25.66L214.131 12.7H219.591V34H213.741V21.04L205.971 34H200.421ZM210.021 11.74C208.761 11.74 207.641 11.52 206.661 11.08C205.681 10.64 204.911 10.03 204.351 9.25002C203.791 8.47002 203.511 7.58002 203.511 6.58002H207.291C207.291 7.24002 207.531 7.81002 208.011 8.29002C208.491 8.77002 209.161 9.01002 210.021 9.01002C210.861 9.01002 211.531 8.78002 212.031 8.32002C212.531 7.86002 212.781 7.28002 212.781 6.58002H216.561C216.561 7.58002 216.281 8.47002 215.721 9.25002C215.161 10.03 214.381 10.64 213.381 11.08C212.401 11.52 211.281 11.74 210.021 11.74Z" fill="#CCCCCC"/>
<path fill-rule="evenodd" clip-rule="evenodd" d="M112.742 4.82901C112.546 4.87246 112.404 5.04237 112.392 5.24329C112.365 5.68169 111.796 5.83421 111.554 5.46771C111.443 5.29974 111.235 5.22359 111.043 5.28423C109.959 5.62694 108.923 6.05682 107.943 6.56396C107.764 6.65679 107.67 6.85834 107.711 7.05623C107.799 7.4875 107.287 7.78236 106.958 7.49029C106.806 7.35633 106.585 7.33641 106.415 7.44511C105.464 8.05242 104.576 8.73671 103.756 9.48703C103.607 9.6232 103.569 9.842 103.659 10.0224C103.856 10.4157 103.439 10.8339 103.046 10.6372C102.865 10.547 102.647 10.5853 102.511 10.7344C101.755 11.5637 101.072 12.455 100.471 13.397C100.362 13.5667 100.382 13.7872 100.516 13.9379C100.807 14.2664 100.512 14.7768 100.082 14.6887C99.885 14.6484 99.6841 14.7416 99.5913 14.9203C99.0763 15.9122 98.6454 16.9487 98.3053 18.0184C98.2442 18.2108 98.3204 18.4193 98.4888 18.5305C98.8558 18.7728 98.702 19.3429 98.263 19.3692C98.0617 19.3813 97.8911 19.5235 97.8476 19.7205C97.6077 20.8056 97.4594 21.917 97.4088 23.044C97.3997 23.2457 97.5277 23.4275 97.7192 23.4913C98.1369 23.6305 98.1376 24.2215 97.7199 24.3607C97.5283 24.4246 97.4006 24.6065 97.4099 24.8082C97.4607 25.9106 97.606 27.022 97.8515 28.1327C97.895 28.3293 98.0649 28.4713 98.2659 28.4834C98.7043 28.5097 98.8568 29.079 98.4903 29.321C98.3223 29.4319 98.2462 29.6398 98.3068 29.8318C98.6495 30.9164 99.0794 31.9516 99.5865 32.9317C99.6793 33.1111 99.8809 33.2047 100.079 33.1642C100.51 33.076 100.805 33.5881 100.513 33.9175C100.379 34.0686 100.359 34.29 100.468 34.4602C101.075 35.4109 101.759 36.2993 102.51 37.1191C102.646 37.2679 102.865 37.3058 103.045 37.2156C103.438 37.0189 103.857 37.4357 103.66 37.8291C103.57 38.0096 103.608 38.2283 103.757 38.3643C104.586 39.1206 105.478 39.8028 106.42 40.4042C106.589 40.5126 106.81 40.4929 106.96 40.3593C107.289 40.0679 107.799 40.3626 107.711 40.7928C107.671 40.9901 107.764 41.191 107.943 41.2838C108.935 41.7987 109.971 42.2296 111.041 42.5696C111.233 42.6308 111.442 42.5545 111.553 42.3861C111.795 42.0191 112.366 42.1729 112.392 42.6119C112.404 42.8133 112.546 42.9839 112.743 43.0274C113.828 43.2673 114.94 43.4156 116.067 43.4662C116.268 43.4753 116.45 43.3473 116.514 43.1557C116.653 42.7381 117.244 42.7374 117.383 43.155C117.447 43.3467 117.629 43.4744 117.831 43.4651C118.933 43.4143 120.045 43.2689 121.155 43.0234C121.352 42.9799 121.494 42.81 121.506 42.6091C121.532 42.1707 122.102 42.0181 122.344 42.3846C122.455 42.5526 122.663 42.6288 122.854 42.5681C123.939 42.2254 124.974 41.7956 125.954 41.2884C126.134 41.1956 126.227 40.994 126.187 40.7961C126.099 40.3648 126.611 40.0699 126.94 40.362C127.091 40.496 127.313 40.5159 127.483 40.4072C128.434 39.7999 129.322 39.1156 130.142 38.3653C130.291 38.2291 130.328 38.0103 130.238 37.8299C130.042 37.4365 130.458 37.0183 130.852 37.2149C131.032 37.3052 131.251 37.2669 131.387 37.1178C132.143 36.2885 132.825 35.3972 133.427 34.4553C133.535 34.2856 133.515 34.065 133.382 33.9144C133.091 33.5858 133.385 33.0755 133.815 33.1635C134.013 33.2039 134.214 33.1107 134.306 32.932C134.821 31.9401 135.252 30.9035 135.592 29.8339C135.653 29.6415 135.577 29.433 135.409 29.3218C135.042 29.0794 135.196 28.5093 135.635 28.483C135.836 28.4709 136.006 28.3286 136.05 28.1316C136.29 27.0466 136.438 25.9351 136.489 24.8083C136.498 24.6065 136.37 24.4248 136.178 24.3609C135.761 24.2217 135.76 23.6308 136.178 23.4916C136.369 23.4277 136.497 23.2458 136.488 23.0441C136.437 21.9417 136.291 20.8302 136.046 19.7195C136.002 19.5229 135.833 19.3809 135.632 19.3689C135.193 19.3426 135.041 18.7733 135.407 18.5313C135.575 18.4204 135.651 18.2125 135.591 18.0206C135.248 16.9359 134.818 15.9007 134.311 14.9206C134.218 14.7412 134.017 14.6476 133.819 14.6881C133.387 14.7763 133.093 14.2642 133.385 13.9348C133.519 13.7838 133.538 13.5624 133.43 13.3922C132.822 12.4415 132.138 11.553 131.388 10.7332C131.252 10.5844 131.033 10.5465 130.853 10.6367C130.459 10.8333 130.041 10.4166 130.238 10.0233C130.328 9.84286 130.29 9.62417 130.141 9.4882C129.311 8.73189 128.42 8.04966 127.478 7.44814C127.308 7.3398 127.088 7.35951 126.937 7.49307C126.608 7.7844 126.098 7.48979 126.186 7.05959C126.227 6.86237 126.133 6.66149 125.955 6.56873C124.963 6.05369 123.926 5.62283 122.856 5.28275C122.664 5.22161 122.456 5.29782 122.344 5.46621C122.102 5.83317 121.532 5.67937 121.506 5.24043C121.494 5.03911 121.351 4.86858 121.154 4.82505C120.069 4.58518 118.958 4.43679 117.831 4.38622C117.629 4.37716 117.447 4.5051 117.384 4.69665C117.244 5.11424 116.653 5.11494 116.514 4.69735C116.45 4.50573 116.269 4.37801 116.067 4.38731C114.964 4.43813 113.853 4.58346 112.742 4.82901ZM116.534 4.3714C116.819 4.36512 117.104 4.36516 117.388 4.3714L116.534 4.3714ZM121.654 4.94235C121.881 4.99881 122.106 5.05928 122.331 5.12372L121.654 4.94235ZM130.544 9.86711C130.71 10.0271 130.873 10.1902 131.034 10.3563L130.544 9.86711ZM133.663 13.7665C133.811 14.0105 133.954 14.2583 134.092 14.51L133.663 13.7665ZM136.504 23.5095C136.51 23.7962 136.51 24.0823 136.504 24.3674L136.504 23.5095ZM135.936 28.6173C135.877 28.8536 135.815 29.0886 135.747 29.322L135.936 28.6173ZM131.017 37.5121C130.851 37.6845 130.682 37.854 130.509 38.0205L131.017 37.5121ZM127.113 40.6376C126.866 40.7876 126.615 40.9326 126.36 41.0722L127.113 40.6376ZM122.062 42.8006C122.045 42.8052 122.027 42.8099 122.01 42.8146C121.993 42.8192 121.975 42.8238 121.958 42.8284L122.062 42.8006ZM117.371 43.4809C117.08 43.4874 116.791 43.4873 116.502 43.4809L117.371 43.4809ZM112.259 42.914C112.022 42.8551 111.786 42.7918 111.551 42.7242L112.259 42.914ZM107.215 40.8862C107.186 40.8695 107.157 40.8526 107.128 40.8357L107.215 40.8862ZM103.365 37.9968C103.191 37.8293 103.02 37.6584 102.852 37.4843L103.365 37.9968ZM100.238 34.0916C100.088 33.844 99.9422 33.5923 99.8022 33.3366L100.238 34.0916ZM98.0744 29.0393C98.0697 29.022 98.0651 29.0047 98.0604 28.9873C98.0558 28.97 98.0512 28.9527 98.0466 28.9353L98.0744 29.0393ZM97.3941 24.3465C97.3876 24.0574 97.3877 23.7689 97.3941 23.4815L97.3941 24.3465ZM97.9634 19.2272C98.0208 18.9962 98.0824 18.7665 98.148 18.5382L97.9634 19.2272ZM102.887 10.3334C103.049 10.1657 103.214 10.0007 103.382 9.83865L102.887 10.3334ZM106.788 7.21258C107.033 7.06407 107.281 6.92058 107.533 6.78228L106.788 7.21258ZM120.492 37.1481C113.189 39.1047 105.684 34.7712 103.727 27.469C101.77 20.1668 106.104 12.661 113.406 10.7044C120.708 8.74775 128.214 13.0812 130.171 20.3834C132.127 27.6857 127.794 35.1914 120.492 37.1481Z" fill="#CCCCCC"/>
<path fill-rule="evenodd" clip-rule="evenodd" d="M128.338 28.5325C128.927 27.0739 129.251 25.4802 129.251 23.8107C129.251 21.7929 128.777 19.8856 127.935 18.1939L124.686 23.0859L128.338 28.5325ZM125.304 32.9791L120.489 25.955H119.628V34H114.381V25.955H113.52L108.416 33.3988C110.624 35.2909 113.492 36.434 116.627 36.434C119.988 36.434 123.042 35.1206 125.304 32.9791ZM105.215 29.2119C104.439 27.5745 104.004 25.7433 104.004 23.8107C104.004 21.5386 104.605 19.4066 105.655 17.5648L109.323 23.0859L105.215 29.2119ZM109.122 13.6599L113.601 20.7197H114.381V13H119.628V20.7197H120.408L124.637 14.0532C122.458 12.2625 119.668 11.1875 116.627 11.1875C113.817 11.1875 111.22 12.1062 109.122 13.6599Z" fill="#C4C4C4"/>
<path d="M130.004 24C130.004 31.1797 124.184 37 117.004 37C109.825 37 104.004 31.1797 104.004 24C104.004 16.8203 109.825 11 117.004 11C124.184 11 130.004 16.8203 130.004 24ZM105.536 24C105.536 30.8925 110.112 35.4683 117.004 35.4683C123.897 35.4683 128.473 30.8925 128.473 24C128.473 17.1075 123.897 12.5317 117.004 12.5317C110.112 12.5317 105.536 17.1075 105.536 24Z" fill="#CCCCCC"/>
</svg>
