<svg width="40" height="40" viewBox="0 0 40 40" fill="none" xmlns="http://www.w3.org/2000/svg">
<path d="M5 0H3C1.34573 0 0 1.57703 0 3.51562V10.5469C0 12.4855 1.34573 14.0625 3 14.0625H5C6.65427 14.0625 8 12.4855 8 10.5469C8 8.20312 8 6.25102 8 3.51562C8 1.57703 6.65427 0 5 0Z" fill="#404040"/>
<path d="M37.0001 0H35.0001C33.3458 0 32.0001 1.57703 32.0001 3.51562C32.0001 5.98367 32.0001 8.11 32.0001 10.5469C32.0001 12.4855 33.3458 14.0625 35.0001 14.0625H37.0001C38.6543 14.0625 40.0001 12.4855 40.0001 10.5469V3.51562C40.0001 1.57703 38.6543 0 37.0001 0Z" fill="#404040"/>
<path d="M37.0001 25.9375H35.0001C33.3458 25.9375 32.0001 27.5145 32.0001 29.4531C32.0001 31.9212 32.0001 34.0475 32.0001 36.4844C32.0001 38.423 33.3458 40 35.0001 40H37.0001C38.6543 40 40.0001 38.423 40.0001 36.4844V29.4531C40.0001 27.5145 38.6543 25.9375 37.0001 25.9375Z" fill="#404040"/>
<path d="M5 25.9375H3C1.34573 25.9375 0 27.5145 0 29.4531V36.4844C0 38.423 1.34573 40 3 40H5C6.65427 40 8 38.423 8 36.4844C8 34.1406 8 32.1885 8 29.4531C8 27.5145 6.65427 25.9375 5 25.9375Z" fill="#404040"/>
<path d="M23.1591 8.00005H30V6.00005H23.1591C22.6737 4.63895 21.5258 4 20 4C18.4742 4 17.3575 4.63891 16.8721 6H10V8H16.8721C17.2262 8.99281 18.0072 9.64594 19 10V18C17.0614 18 15.4844 19.4677 15.4844 21.4062V23.75C15.4844 25.6886 17.0614 27 19 27V32L10 32V34H30V32H21.0312V27C22.9698 27 24.5469 25.6886 24.5469 23.75V21.4063C24.5469 19.4677 22.9698 18 21.0312 18V10C22.0241 9.64598 22.8051 8.99286 23.1591 8.00005Z" fill="#404040"/>
<path d="M20 4C21.5258 4 22.6737 4.63895 23.1591 6.00005V8.00005C22.8051 8.99286 22.0241 9.64598 21.0312 10V18C22.9698 18 24.5469 19.4677 24.5469 21.4063V23.75C24.5469 25.6886 22.9698 27 21.0312 27L19 27C17.0614 27 15.4844 25.6886 15.4844 23.75V21.4062C15.4844 19.4677 17.0614 18 19 18L21.0312 18V10L19 10C18.0072 9.64594 17.2262 8.99281 16.8721 8V6C17.3575 4.63891 18.4742 4 20 4Z" fill="#0057D9"/>
</svg>
