<svg width="40" height="40" viewBox="0 0 40 40" fill="none" xmlns="http://www.w3.org/2000/svg">
<mask id="mask0" mask-type="alpha" maskUnits="userSpaceOnUse" x="0" y="0" width="40" height="40">
<rect width="40" height="40" fill="#C4C4C4"/>
</mask>
<g mask="url(#mask0)">
<path d="M0 12V4" stroke="#404040" stroke-width="4"/>
<path d="M6 18H10" stroke="#0057D9" stroke-width="2" stroke-linecap="round"/>
<path fill-rule="evenodd" clip-rule="evenodd" d="M22.072 28.8109H-13.3821C-15.8867 28.3935 -20.1839 26.618 -18.3913 20.0449C-16.5129 13.1574 -11.5037 12.5313 -11.5037 12.5313C-11.5037 12.5313 -7.07818 1.14927 -3.99006 0.634606C-0.233242 0.00850195 2.49036 -0.0240627 6.65429 0.00846761C6.95039 0.0107808 7.24754 0.0127214 7.54463 0.0146616C10.9357 0.0368076 14.3193 0.0589042 16.0464 0.634606C17.5298 1.12908 18.1201 2.01409 19.6248 4.27024L19.6249 4.27041C20.0256 4.87113 20.4911 5.56906 21.0555 6.38269C22.9837 9.16221 24.8123 11.9051 24.8123 11.9051C37.3351 11.9051 39.8397 17.1229 39.8397 18.7926V25.6802C39.8397 27.3205 36.9177 28.6022 36.0829 28.8109H35.703C35.7505 28.4844 35.7751 28.1506 35.7751 27.811C35.7751 24.0071 32.6914 20.9235 28.8875 20.9235C25.0837 20.9235 22 24.0071 22 27.811C22 28.1506 22.0246 28.4844 22.072 28.8109ZM19.1771 11.9051H-6.49463C-6.49463 6.39504 -1.90294 4.60011 0.3929 4.39139H7.5935H14.7941C15.4202 4.39139 17.2987 8.14838 17.2987 8.14838L19.1771 11.9051Z" fill="#404040"/>
<path fill-rule="evenodd" clip-rule="evenodd" d="M14.6715 28H13.0561V29.4651L8.21274 33.4072C7.92909 33.638 7.92909 34.0712 8.21274 34.3021L13.2331 38.3882C13.2225 38.3924 13.2119 38.3966 13.2014 38.401C12.9915 38.4879 12.8007 38.6154 12.6399 38.7761C12.5767 38.8394 12.4291 38.9253 12.2681 39.0189C12.0392 39.152 11.7833 39.3009 11.7039 39.4231H8.78686V40H18.9407V39.4231H16.0237C15.9442 39.3009 15.6883 39.152 15.4595 39.0189L15.4595 39.0189L15.4594 39.0189C15.2985 38.9253 15.1509 38.8394 15.0876 38.7761C14.9269 38.6154 14.7361 38.4879 14.5261 38.401C14.5156 38.3966 14.5051 38.3924 14.4945 38.3882L19.5148 34.3021C19.7985 34.0712 19.7985 33.638 19.5148 33.4072L14.6715 29.4651V28ZM16.6861 32.2225C17.6813 33.083 17.6813 34.6262 16.6861 35.4867C15.0654 36.888 12.6621 36.888 11.0415 35.4867C10.0463 34.6262 10.0463 33.083 11.0415 32.2225C12.6621 30.8213 15.0654 30.8213 16.6861 32.2225Z" fill="#404040"/>
<circle cx="29" cy="28" r="6" fill="#0057D9"/>
</g>
</svg>
