<svg width="54" height="46" viewBox="0 0 54 46" fill="none" xmlns="http://www.w3.org/2000/svg">
<path fill-rule="evenodd" clip-rule="evenodd" d="M36.9321 33.4938C36.9321 33.4938 36.841 34.565 37.3041 34.8821C37.8074 35.2267 38.8392 34.5949 38.8392 34.5949C38.8392 34.5949 39.913 29.347 40.2806 27.0165C40.2806 25.5852 39.16 24.2784 38.9953 24.161C35.3394 21.5547 33.661 21.103 28.6393 18.7209L26.2763 22.814L37.3179 27.0664L37.3314 27.043L37.339 27.0786L36.9321 33.4938ZM25.0905 24.8676L29.8334 16.6527L25.6622 13.9191L25.8076 10.9689L25.7671 10.958L25.8154 10.939C25.8154 10.939 25.6127 8.15457 24.3576 7.24141C21.9358 5.47947 15.781 1.69397 15.781 1.69397C15.781 1.69397 14.0422 1.23469 13.7378 2.8615C13.6068 3.56184 14.6119 4.7353 14.6119 4.7353L21.6615 9.82599L21.6865 9.86464L21.6536 9.85583L21.1899 10.988L16.291 7.77746C15.4771 7.24405 14.3822 7.5045 13.8956 8.34726L13.098 9.72883L8.69712 7.18801L6.32568 11.2955L10.7265 13.8363L9.92887 15.2179C9.4423 16.0606 9.76421 17.1391 10.6331 17.5773L25.0905 24.8676Z" fill="#404040"/>
<path d="M45.0932 38.669L39.3625 36.032C39.0501 35.8882 38.9289 35.5071 39.1008 35.2093C39.2727 34.9115 39.6634 34.8259 39.9441 35.0246L45.0932 38.669Z" fill="#0057D9"/>
<path d="M30.4451 30.2118L36.3986 32.9751C36.7109 33.12 36.8315 33.5015 36.6594 33.7997C36.4873 34.0978 36.0965 34.184 35.8149 33.9861L30.4451 30.2118Z" fill="#0057D9"/>
<path d="M33.8267 41.7816L36.312 36.109C36.4766 35.7333 36.9312 35.5841 37.2864 35.7892C37.6416 35.9942 37.7397 36.4625 37.4966 36.7929L33.8267 41.7816Z" fill="#0057D9"/>
<path d="M29.6531 36.5544L35.4336 34.2822C35.8242 34.1287 36.2614 34.3492 36.37 34.7546C36.4786 35.16 36.2103 35.5696 35.7953 35.6319L29.6531 36.5544Z" fill="#0057D9"/>
<path d="M46.0062 32.3904L40.2257 34.6626C39.8352 34.8162 39.3979 34.5956 39.2893 34.1902C39.1807 33.7849 39.4491 33.3752 39.8641 33.3129L46.0062 32.3904Z" fill="#0057D9"/>
<path d="M40.1149 42.5945L37.8427 36.814C37.6892 36.4234 37.9098 35.9862 38.3151 35.8776C38.7205 35.769 39.1301 36.0373 39.1925 36.4523L40.1149 42.5945Z" fill="#0057D9"/>
</svg>
