<svg width="41" height="40" viewBox="0 0 41 40" fill="none" xmlns="http://www.w3.org/2000/svg">
<path d="M11.0456 8.50001C11.0456 4.50003 7.49988 -1.99999 4.5 3C2.38124 6.53141 3.54572 20.5 3.54567 29" stroke="#404040" stroke-width="2"/>
<mask id="path-2-inside-1" fill="white">
<path d="M40.48 17.2055C40.48 26.7078 32.7769 34.411 23.2746 34.411C13.7722 34.411 6.06909 26.7078 6.06909 17.2055C6.06909 7.70316 13.7722 0 23.2746 0C32.7769 0 40.48 7.70316 40.48 17.2055Z"/>
</mask>
<path d="M38.48 17.2055C38.48 25.6032 31.6723 32.411 23.2746 32.411V36.411C33.8815 36.411 42.48 27.8124 42.48 17.2055H38.48ZM23.2746 32.411C14.8768 32.411 8.06909 25.6032 8.06909 17.2055H4.06909C4.06909 27.8124 12.6677 36.411 23.2746 36.411V32.411ZM8.06909 17.2055C8.06909 8.80772 14.8768 2 23.2746 2V-2C12.6677 -2 4.06909 6.59859 4.06909 17.2055H8.06909ZM23.2746 2C31.6723 2 38.48 8.80772 38.48 17.2055H42.48C42.48 6.59859 33.8815 -2 23.2746 -2V2Z" fill="#404040" mask="url(#path-2-inside-1)"/>
<path fill-rule="evenodd" clip-rule="evenodd" d="M23.275 31.83C31.352 31.83 37.8997 25.2823 37.8997 17.2053C37.8997 9.12837 31.352 2.58069 23.275 2.58069C15.1981 2.58069 8.65039 9.12837 8.65039 17.2053C8.65039 25.2823 15.1981 31.83 23.275 31.83ZM23.2752 26.0307C28.1493 26.0307 32.1005 22.0795 32.1005 17.2055C32.1005 12.3314 28.1493 8.38025 23.2752 8.38025C18.4012 8.38025 14.45 12.3314 14.45 17.2055C14.45 22.0795 18.4012 26.0307 23.2752 26.0307Z" fill="#404040"/>
<mask id="path-5-inside-2" fill="white">
<path fill-rule="evenodd" clip-rule="evenodd" d="M15.4532 8.71243L13.6257 6.88489C11.6731 4.93227 8.43585 4.91334 7.05423 7.30428C6.63622 8.02766 6.26517 8.77919 5.94407 9.55439C4.98288 11.8749 4.48816 14.362 4.48816 16.8737C4.48816 19.3854 4.98288 21.8726 5.94407 24.1931C6.26517 24.9683 6.63622 25.7198 7.05423 26.4432C8.43585 28.8341 11.6731 28.8152 13.6257 26.8626L15.4534 25.0349C13.3647 22.9462 12.0729 20.0608 12.0729 16.8736C12.0729 13.6865 13.3647 10.8011 15.4532 8.71243Z"/>
</mask>
<path fill-rule="evenodd" clip-rule="evenodd" d="M15.4532 8.71243L13.6257 6.88489C11.6731 4.93227 8.43585 4.91334 7.05423 7.30428C6.63622 8.02766 6.26517 8.77919 5.94407 9.55439C4.98288 11.8749 4.48816 14.362 4.48816 16.8737C4.48816 19.3854 4.98288 21.8726 5.94407 24.1931C6.26517 24.9683 6.63622 25.7198 7.05423 26.4432C8.43585 28.8341 11.6731 28.8152 13.6257 26.8626L15.4534 25.0349C13.3647 22.9462 12.0729 20.0608 12.0729 16.8736C12.0729 13.6865 13.3647 10.8011 15.4532 8.71243Z" fill="white"/>
<path d="M15.4532 8.71243L16.1603 9.41952L16.8674 8.71242L16.1603 8.00532L15.4532 8.71243ZM13.6257 6.88489L12.9186 7.59199V7.59199L13.6257 6.88489ZM7.05423 7.30428L6.1884 6.80395L6.1884 6.80395L7.05423 7.30428ZM5.94407 9.55439L6.86795 9.93708L6.86795 9.93708L5.94407 9.55439ZM5.94407 24.1931L6.86795 23.8104L5.94407 24.1931ZM7.05423 26.4432L7.92007 25.9429L7.92007 25.9429L7.05423 26.4432ZM13.6257 26.8626L12.9186 26.1555L13.6257 26.8626ZM15.4534 25.0349L16.1605 25.742L16.8676 25.0349L16.1605 24.3278L15.4534 25.0349ZM16.1603 8.00532L14.3328 6.17778L12.9186 7.59199L14.7461 9.41954L16.1603 8.00532ZM14.3328 6.17778C13.1662 5.01115 11.6003 4.40471 10.085 4.46658C8.55034 4.52924 7.06683 5.28379 6.1884 6.80395L7.92007 7.80461C8.42325 6.93383 9.24916 6.50237 10.1666 6.46492C11.1035 6.42667 12.1326 6.80601 12.9186 7.59199L14.3328 6.17778ZM6.1884 6.80395C5.74853 7.56515 5.35807 8.35598 5.02019 9.17171L6.86795 9.93708C7.17226 9.20241 7.52391 8.49017 7.92007 7.80461L6.1884 6.80395ZM5.02019 9.17171C4.00874 11.6136 3.48816 14.2307 3.48816 16.8737H5.48816C5.48816 14.4933 5.95701 12.1363 6.86795 9.93708L5.02019 9.17171ZM3.48816 16.8737C3.48816 19.5168 4.00874 22.1339 5.02019 24.5758L6.86795 23.8104C5.95701 21.6112 5.48816 19.2541 5.48816 16.8737H3.48816ZM5.02019 24.5758C5.35807 25.3915 5.74853 26.1823 6.1884 26.9435L7.92007 25.9429C7.52391 25.2573 7.17226 24.5451 6.86795 23.8104L5.02019 24.5758ZM6.1884 26.9435C7.06683 28.4637 8.55033 29.2182 10.085 29.2809C11.6003 29.3428 13.1662 28.7363 14.3328 27.5697L12.9186 26.1555C12.1326 26.9415 11.1035 27.3208 10.1666 27.2826C9.24916 27.2451 8.42325 26.8137 7.92007 25.9429L6.1884 26.9435ZM14.3328 27.5697L16.1605 25.742L14.7463 24.3278L12.9186 26.1555L14.3328 27.5697ZM16.1605 24.3278C14.2517 22.419 13.0729 19.7849 13.0729 16.8736H11.0729C11.0729 20.3366 12.4778 23.4735 14.7463 25.742L16.1605 24.3278ZM13.0729 16.8736C13.0729 13.9623 14.2516 11.3283 16.1603 9.41952L14.7461 8.00534C12.4777 10.2738 11.0729 13.4106 11.0729 16.8736H13.0729Z" fill="#404040" mask="url(#path-5-inside-2)"/>
<circle cx="23.2745" cy="17.2056" r="3.27794" fill="#404040"/>
<circle cx="23.4007" cy="23.131" r="0.882522" transform="rotate(180 23.4007 23.131)" fill="#404040"/>
<circle cx="17.4752" cy="17.2055" r="0.882522" transform="rotate(-90 17.4752 17.2055)" fill="#404040"/>
<circle cx="19.2106" cy="21.3955" r="0.882522" transform="rotate(-135 19.2106 21.3955)" fill="#404040"/>
<circle cx="27.5909" cy="21.3955" r="0.882522" transform="rotate(135 27.5909 21.3955)" fill="#404040"/>
<circle cx="23.4007" cy="11.2801" r="0.882522" transform="rotate(180 23.4007 11.2801)" fill="#404040"/>
<circle cx="29.3261" cy="17.2055" r="0.882522" transform="rotate(-90 29.3261 17.2055)" fill="#404040"/>
<circle cx="27.5905" cy="13.0156" r="0.882522" transform="rotate(-135 27.5905 13.0156)" fill="#404040"/>
<circle cx="19.2108" cy="13.0155" r="0.882522" transform="rotate(135 19.2108 13.0155)" fill="#404040"/>
<path d="M0.226033 38.2867C-1.12202 36.0667 4 30 4 30C4 30 9.12202 36.0667 7.77397 38.2867C6.38684 40.5711 1.61316 40.5711 0.226033 38.2867Z" fill="#0057D9"/>
</svg>
