<svg width="40" height="40" viewBox="0 0 40 40" fill="none" xmlns="http://www.w3.org/2000/svg">
<path d="M39.2548 27.0695C38.4354 26.3172 37.1577 26.3664 36.2966 27.0695L29.8803 32.2659C29.0956 32.9058 28.1165 33.2503 27.1027 33.2503H18.8878C18.2768 33.2503 17.7768 32.744 17.7768 32.1253C17.7768 31.5065 18.2768 31.0002 18.8878 31.0002H24.325C25.4291 31.0002 26.4569 30.2338 26.6374 29.1298C26.8666 27.7235 25.7972 27 24.4431 27H13.3326C11.4577 27 9.6453 27.6539 8.18705 28.8493L4.95806 31.0002H1.11105C0.499972 31.0002 0 31.5065 0 32.1253V38.8756C0 39.4944 0.499972 40.0006 1.11105 40.0006H25.8875C26.8943 40.0006 27.8735 39.6561 28.6651 39.0162L39.1645 30.508C40.22 29.6572 40.3033 28.0258 39.2548 27.0695Z" fill="#404040"/>
<path fill-rule="evenodd" clip-rule="evenodd" d="M21.5806 1.18125C21.116 -0.39375 18.884 -0.39375 18.4194 1.18125L18.3069 1.56375C18.2375 1.79954 18.1161 2.01681 17.9518 2.19961C17.7875 2.38242 17.5843 2.52613 17.3573 2.6202C17.1302 2.71427 16.8849 2.75632 16.6395 2.74326C16.394 2.73021 16.1546 2.66238 15.9387 2.54475L15.59 2.3535C14.1466 1.56825 12.5682 3.14663 13.3546 4.58887L13.5448 4.93875C14.0465 5.86125 13.5706 7.00987 12.5638 7.30687L12.1812 7.41937C10.6062 7.884 10.6062 10.116 12.1812 10.5806L12.5638 10.6931C12.7995 10.7625 13.0168 10.8839 13.1996 11.0482C13.3824 11.2125 13.5261 11.4157 13.6202 11.6427C13.7143 11.8698 13.7563 12.1151 13.7433 12.3605C13.7302 12.606 13.6624 12.8454 13.5448 13.0612L13.3535 13.41C12.5682 14.8534 14.1466 16.4317 15.5889 15.6454L15.9387 15.4552C16.1546 15.3376 16.394 15.2698 16.6395 15.2567C16.8849 15.2437 17.1302 15.2857 17.3573 15.3798C17.5843 15.4739 17.7875 15.6176 17.9518 15.8004C18.1161 15.9832 18.2375 16.2005 18.3069 16.4362L18.4194 16.8188C18.884 18.3937 21.116 18.3937 21.5806 16.8188L21.6931 16.4362C21.7625 16.2005 21.8839 15.9832 22.0482 15.8004C22.2125 15.6176 22.4157 15.4739 22.6427 15.3798C22.8698 15.2857 23.1151 15.2437 23.3605 15.2567C23.606 15.2698 23.8454 15.3376 24.0612 15.4552L24.41 15.6465C25.8534 16.4317 27.4317 14.8534 26.6454 13.4111L26.4552 13.0612C26.3376 12.8454 26.2698 12.606 26.2567 12.3605C26.2437 12.1151 26.2857 11.8698 26.3798 11.6427C26.4739 11.4157 26.6176 11.2125 26.8004 11.0482C26.9832 10.8839 27.2005 10.7625 27.4362 10.6931L27.8188 10.5806C29.3937 10.116 29.3937 7.884 27.8188 7.41937L27.4362 7.30687C27.2005 7.23745 26.9832 7.11613 26.8004 6.95182C26.6176 6.7875 26.4739 6.58434 26.3798 6.35726C26.2857 6.13017 26.2437 5.88491 26.2567 5.63945C26.2698 5.394 26.3376 5.15458 26.4552 4.93875L26.6465 4.59C27.4317 3.14663 25.8534 1.56825 24.4111 2.35462L24.0612 2.54475C23.8454 2.66238 23.606 2.73021 23.3605 2.74326C23.1151 2.75632 22.8698 2.71427 22.6427 2.6202C22.4157 2.52613 22.2125 2.38242 22.0482 2.19961C21.8839 2.01681 21.7625 1.79954 21.6931 1.56375L21.5806 1.18125ZM20 12.2963C20.8742 12.2963 21.7126 11.949 22.3308 11.3308C22.949 10.7126 23.2963 9.87422 23.2963 9C23.2963 8.12578 22.949 7.28737 22.3308 6.6692C21.7126 6.05103 20.8742 5.70375 20 5.70375C19.1261 5.70375 18.288 6.05091 17.67 6.66887C17.052 7.28683 16.7049 8.12495 16.7049 8.99887C16.7049 9.8728 17.052 10.7109 17.67 11.3289C18.288 11.9468 19.1261 12.294 20 12.294V12.2963Z" fill="#0057D9"/>
</svg>
