<svg width="40" height="41" viewBox="0 0 40 41" fill="none" xmlns="http://www.w3.org/2000/svg">
<path d="M5 3.62568C5 2.02885 6.29448 0.734375 7.8913 0.734375H36C38.2091 0.734375 40 2.52524 40 4.73438V9.73438C40 11.9435 38.2091 13.7344 36 13.7344H28.4116C27.7749 13.7344 27.1475 13.5824 26.5814 13.2911L21.0324 10.4357C20.4198 10.1205 19.7361 9.9688 19.0477 9.99541L7.54793 10.4399C7.23041 10.4522 6.93963 10.6211 6.77161 10.8907C6.26213 11.7085 5 11.3475 5 10.384V3.62568Z" fill="#404040"/>
<path d="M5 36.7341C5 38.9433 6.79086 40.7341 9 40.7341H36C38.2091 40.7341 40 38.9433 40 36.7341V31.7341C40 29.525 38.2091 27.7341 36 27.7341H32.8026C31.7237 27.7341 30.6906 28.1699 29.9377 28.9426L23.9435 35.0942C23.064 35.9969 21.8105 36.4322 20.5608 36.2691L12.1701 35.1736C11.5987 35.099 11.0541 34.886 10.5838 34.5532L9.8377 34.0252C7.80682 32.588 5 34.0403 5 36.5282V36.7341Z" fill="#404040"/>
<path d="M29.8253 14.7344H36C38.2091 14.7344 40 16.5252 40 18.7344V22.7344C40 24.9435 38.2092 26.7344 36 26.7344H29.8253V14.7344Z" fill="#404040"/>
<path fill-rule="evenodd" clip-rule="evenodd" d="M34 22.3348C34 31.3921 26.6577 38.7344 17.6005 38.7344C12.5363 38.7344 8.00825 36.439 5 32.8319L5 35.7428C8.29237 38.8381 12.725 40.7344 17.6005 40.7344C27.7622 40.7344 36 32.4966 36 22.3348C36 12.1731 27.7622 3.9353 17.6005 3.9353C12.725 3.9353 8.29237 5.8316 5 8.92687L5 11.8378C8.00825 8.23071 12.5363 5.9353 17.6005 5.9353C26.6577 5.9353 34 13.2776 34 22.3348Z" fill="white"/>
<path fill-rule="evenodd" clip-rule="evenodd" d="M18.3836 4.75259C18.2026 4.74458 18.0395 4.85925 17.9821 5.03117C17.857 5.40627 17.3265 5.40627 17.2014 5.03117C17.144 4.85925 16.9809 4.74459 16.7999 4.7526C15.7766 4.79787 14.776 4.93044 13.8053 5.14304C13.6277 5.18195 13.4993 5.33541 13.4884 5.51695C13.4646 5.9125 12.9505 6.04942 12.7321 5.71878C12.6319 5.56711 12.444 5.49817 12.2707 5.55302C11.3022 5.85952 10.37 6.24745 9.48208 6.70879C9.32094 6.7925 9.23695 6.97387 9.27337 7.15176C9.35279 7.53967 8.89282 7.80596 8.59651 7.54333C8.46057 7.42285 8.26151 7.40518 8.10852 7.50311C7.25742 8.04791 6.4563 8.66389 5.71358 9.34266C5.57978 9.46494 5.54551 9.6614 5.62661 9.82351C5.80344 10.177 5.42806 10.5519 5.0745 10.3752C4.9124 10.2942 4.71591 10.3284 4.59359 10.4621C3.91446 11.2045 3.29814 12.0053 2.75305 12.856C2.65504 13.009 2.67273 13.2081 2.79329 13.344C3.05595 13.64 2.78913 14.0998 2.40138 14.0205C2.22353 13.9841 2.04203 14.068 1.95827 14.229C1.4968 15.1164 1.10873 16.0481 0.802109 17.0159C0.747215 17.1892 0.816074 17.3771 0.967777 17.4772C1.29854 17.6955 1.1613 18.2094 0.76572 18.2331C0.584244 18.244 0.430824 18.3724 0.391888 18.5499C0.179169 19.5202 0.046524 20.5203 0.00123206 21.5432C-0.00678262 21.7242 0.107887 21.8873 0.279789 21.9446C0.654873 22.0695 0.65488 22.6001 0.279797 22.725C0.107895 22.7823 -0.006775 22.9454 0.0012435 23.1264C0.0465392 24.1491 0.179161 25.1491 0.39183 26.1191C0.430767 26.2967 0.584198 26.4251 0.76569 26.436C1.1613 26.4597 1.29853 26.9737 0.967747 27.192C0.816032 27.2921 0.747162 27.48 0.802059 27.6533C1.10868 28.6212 1.49677 29.5529 1.95828 30.4403C2.04205 30.6014 2.22358 30.6853 2.40145 30.6489C2.78926 30.5696 3.05612 31.0294 2.79343 31.3255C2.67284 31.4614 2.65516 31.6606 2.75319 31.8136C3.29822 32.6642 3.91447 33.4649 4.59352 34.2072C4.71583 34.3409 4.91231 34.3751 5.07441 34.2941C5.42796 34.1174 5.80332 34.4923 5.6265 34.8458C5.5454 35.0079 5.57967 35.2043 5.71347 35.3266C6.4562 36.0054 7.25734 36.6214 8.10846 37.1662C8.26147 37.2642 8.46056 37.2465 8.59651 37.126C8.89286 36.8633 9.35289 37.1297 9.27346 37.5176C9.23703 37.6955 9.32104 37.8769 9.4822 37.9606C10.3701 38.422 11.3023 38.8099 12.2708 39.1164C12.4441 39.1712 12.632 39.1023 12.7322 38.9506C12.9506 38.62 13.4646 38.7569 13.4884 39.1524C13.4993 39.334 13.6277 39.4874 13.8053 39.5263C14.776 39.7389 15.7766 39.8715 16.8 39.9168C16.981 39.9248 17.1441 39.8101 17.2014 39.6382C17.3265 39.2631 17.8571 39.2631 17.9822 39.6382C18.0395 39.8101 18.2026 39.9248 18.3837 39.9168C19.407 39.8715 20.4076 39.7389 21.3783 39.5263C21.5559 39.4874 21.6843 39.334 21.6952 39.1524C21.719 38.7569 22.2331 38.6199 22.4515 38.9506C22.5517 39.1023 22.7396 39.1712 22.9129 39.1164C23.8813 38.8099 24.8136 38.4219 25.7015 37.9606C25.8627 37.8769 25.9467 37.6955 25.9102 37.5176C25.8308 37.1296 26.2908 36.8633 26.5872 37.126C26.7231 37.2465 26.9222 37.2641 27.0752 37.1662C27.9262 36.6214 28.7273 36.0055 29.47 35.3267C29.6038 35.2044 29.6381 35.008 29.557 34.8459C29.3802 34.4924 29.7555 34.1176 30.109 34.2943C30.2711 34.3753 30.4676 34.3411 30.5899 34.2074C31.2691 33.465 31.8854 32.6642 32.4305 31.8134C32.5286 31.6604 32.5109 31.4612 32.3903 31.3253C32.1276 31.0292 32.3944 30.5694 32.7823 30.6487C32.9602 30.6851 33.1417 30.6012 33.2255 30.4401C33.6869 29.5527 34.075 28.6211 34.3816 27.6532C34.4364 27.48 34.3676 27.2921 34.2159 27.192C33.8851 26.9737 34.0223 26.4597 34.4179 26.436C34.5994 26.4251 34.7528 26.2967 34.7918 26.1191C35.0045 25.149 35.1371 24.1489 35.1824 23.1261C35.1904 22.9451 35.0757 22.7821 34.9038 22.7248C34.5287 22.5998 34.5287 22.0693 34.9038 21.9443C35.0757 21.8871 35.1904 21.724 35.1824 21.543C35.1371 20.5202 35.0044 19.5202 34.7917 18.5501C34.7528 18.3725 34.5994 18.2441 34.4179 18.2332C34.0223 18.2095 33.8851 17.6955 34.2158 17.4773C34.3675 17.3771 34.4364 17.1893 34.3815 17.016C34.0749 16.048 33.6867 15.1163 33.2252 14.2288C33.1414 14.0677 32.9599 13.9838 32.7821 14.0202C32.3943 14.0995 32.1275 13.6398 32.3901 13.3437C32.5107 13.2078 32.5284 13.0087 32.4304 12.8557C31.8853 12.0051 31.2691 11.2044 30.59 10.4621C30.4677 10.3284 30.2712 10.2942 30.1091 10.3752C29.7556 10.5519 29.3802 10.177 29.5571 9.82354C29.6382 9.66144 29.6039 9.465 29.4701 9.34273C28.7273 8.66391 27.9262 8.04789 27.075 7.50306C26.922 7.40513 26.7229 7.4228 26.587 7.54329C26.2907 7.80594 25.8307 7.53963 25.9101 7.1517C25.9465 6.97379 25.8625 6.79242 25.7014 6.7087C24.8135 6.24741 23.8813 5.85951 22.9129 5.55303C22.7396 5.49818 22.5517 5.56712 22.4515 5.7188C22.2331 6.04945 21.719 5.91252 21.6953 5.51696C21.6844 5.33542 21.5559 5.18196 21.3783 5.14304C20.4076 4.93043 19.407 4.79786 18.3836 4.75259ZM21.784 5.23699C22.0367 5.29867 22.2872 5.3658 22.5355 5.43824L21.784 5.23699ZM26.1044 6.92479C26.2913 7.02818 26.4762 7.13488 26.6589 7.2448L26.1044 6.92479ZM32.6901 13.2739C32.7993 13.4552 32.9053 13.6387 33.0081 13.8243L32.6901 13.2739ZM34.4969 17.395C34.569 17.6421 34.6359 17.8914 34.6973 18.1428L34.4969 17.395ZM34.6979 26.524C34.6361 26.7772 34.5688 27.0281 34.4962 27.2768L34.6979 26.524ZM33.0162 30.8304C32.9082 31.0259 32.7966 31.2191 32.6814 31.4099L33.0162 30.8304ZM26.66 37.4239C26.4766 37.5343 26.291 37.6414 26.1033 37.7452L26.66 37.4239ZM22.5341 39.2315C22.2868 39.3037 22.0372 39.3705 21.7855 39.432L22.5341 39.2315ZM13.3937 39.4309C13.145 39.3701 12.8984 39.3041 12.654 39.2328L13.3937 39.4309ZM9.08348 37.7469C8.89366 37.642 8.70599 37.5337 8.52054 37.4221L9.08348 37.7469ZM2.49939 31.4053C2.38616 31.2175 2.27634 31.0274 2.17002 30.8351L2.49939 31.4053ZM0.687408 27.2766C0.614796 27.0281 0.54752 26.7773 0.485714 26.5243L0.687408 27.2766ZM0.486904 18.1402C0.547974 17.8906 0.614368 17.643 0.685966 17.3977L0.486904 18.1402ZM2.17591 13.8236C2.27843 13.6385 2.38419 13.4554 2.49311 13.2745L2.17591 13.8236ZM5.11487 9.91611C5.13228 9.89863 5.14974 9.88118 5.16723 9.86377L5.11487 9.91611ZM8.52936 7.24199C8.709 7.13399 8.89073 7.02912 9.07446 6.92743L8.52936 7.24199ZM12.6494 5.43786C12.8968 5.36569 13.1465 5.2988 13.3982 5.23732L12.6494 5.43786ZM17.5918 34.6544C10.7845 34.6544 5.26616 29.1387 5.26616 22.3347C5.26616 15.5307 10.7845 10.015 17.5918 10.015C24.3991 10.015 29.9174 15.5307 29.9174 22.3347C29.9174 29.1387 24.3991 34.6544 17.5918 34.6544Z" fill="#404040"/>
<path fill-rule="evenodd" clip-rule="evenodd" d="M26.4315 29.8178C27.498 28.5572 28.31 27.0475 28.7658 25.3472C29.2324 23.6068 29.2759 21.8527 28.9593 20.1941C28.9603 20.206 28.9611 20.2178 28.9617 20.2295C28.9967 20.853 28.3945 21.3028 27.8013 21.4982C26.4711 21.9364 23.9513 22.7619 21.737 23.462C23.3952 25.2739 25.2792 27.3785 26.16 28.3652C26.486 28.7305 26.7484 29.2347 26.5223 29.6689C26.4964 29.7187 26.4662 29.7678 26.4315 29.8178ZM25.1535 31.1072C25.1409 31.116 25.1284 31.1245 25.116 31.1327C24.5932 31.4747 23.9021 31.1782 23.4361 30.7623C22.3912 29.8298 20.416 28.0615 18.7025 26.4949C17.9617 28.836 17.0803 31.5186 16.6657 32.7745C16.5122 33.2395 16.2063 33.719 15.7171 33.7403C15.656 33.743 15.5932 33.741 15.5266 33.7347C19.0635 34.3791 22.5767 33.3277 25.1535 31.1072ZM13.8141 33.287C8.11711 31.3283 4.82933 25.2656 6.41237 19.3605C8.05476 13.234 14.3224 9.58077 20.454 11.1485C20.2004 11.092 19.9567 11.0717 19.737 11.0719C19.1103 11.0724 18.6403 11.5575 18.4441 12.1526C18.0054 13.483 17.1807 15.998 16.4811 18.2087C14.7718 16.646 12.8025 14.8829 11.7561 13.949C11.2861 13.5296 10.6327 13.3451 10.0874 13.6604C9.8657 13.7886 9.62974 13.9566 9.41059 14.1745C9.18949 14.3944 9.01993 14.632 8.89123 14.8552C8.57832 15.3979 8.76359 16.0471 9.18095 16.5143C10.1142 17.5591 11.8811 19.5307 13.4468 21.2417C11.2378 21.94 8.72507 22.7632 7.39272 23.2021C6.79462 23.3991 6.30821 23.8724 6.30874 24.5021C6.30895 24.758 6.33653 25.0463 6.41578 25.345C6.49573 25.6463 6.6169 25.912 6.74595 26.135C7.05971 26.6772 7.71459 26.8414 8.32785 26.7137C9.69968 26.4283 12.2917 25.8846 14.5573 25.3848C14.0568 27.651 13.5123 30.2444 13.2268 31.6152C13.0995 32.2268 13.1882 32.9735 13.7459 33.2549C13.7678 33.266 13.7904 33.2766 13.8141 33.287ZM20.6999 11.2142C20.952 11.2929 21.1769 11.3985 21.3701 11.5098C21.916 11.8242 22.0829 12.4823 21.9544 13.099C21.6685 14.4719 21.1255 17.058 20.6262 19.3188C23.0254 18.7894 25.7912 18.2109 27.0863 17.9419C27.5656 17.8423 28.1334 17.8673 28.3966 18.28C28.4204 18.3174 28.4426 18.3569 28.4636 18.399C27.2273 15.0118 24.4297 12.2539 20.6999 11.2142Z" fill="#404040"/>
<path d="M20.5839 11.1824L14.5943 33.5251" stroke="#0057D9"/>
<path d="M9.40717 14.1757L25.771 30.5316" stroke="#0057D9"/>
<path d="M6.41238 25.347L28.7659 19.3603" stroke="#0057D9"/>
<ellipse cx="17.5916" cy="22.352" rx="2.51544" ry="2.51422" fill="#0057D9"/>
<path d="M28.7658 25.347C27.1119 31.5168 20.7671 35.1782 14.5943 33.525C8.42157 31.8718 4.75839 25.5301 6.41237 19.3603C8.06635 13.1905 14.4112 9.52913 20.5839 11.1823C26.7566 12.8355 30.4198 19.1773 28.7658 25.347ZM6.85944 19.48C5.27162 25.403 8.78827 31.4911 14.7141 33.0782C20.6399 34.6652 26.731 31.1503 28.3188 25.2273C29.9066 19.3043 26.3899 13.2162 20.4641 11.6292C14.5383 10.0421 8.44726 13.5571 6.85944 19.48Z" fill="#404040"/>
</svg>
