<svg width="41" height="41" viewBox="0 0 41 41" fill="none" xmlns="http://www.w3.org/2000/svg">
<path fill-rule="evenodd" clip-rule="evenodd" d="M0 7.44826C0 4.2175 1.81974 1.41177 4.49015 0.000128326V6.88708L6.92239 8.57093H9.9159L12.3481 6.88708V0C15.0187 1.4116 16.8385 4.2174 16.8385 7.44826C16.8385 11.1141 14.4957 14.2327 11.2256 15.3885V37.1963C11.2256 38.7463 9.96916 40.0028 8.41921 40.0028C6.86927 40.0028 5.61279 38.7463 5.61279 37.1963V15.3884C2.3428 14.2326 0 11.114 0 7.44826Z" fill="#0057D9"/>
<path d="M31.3912 34.3899H37.0041V37.1963C37.0041 38.7463 35.7476 40.0027 34.1977 40.0027C32.6477 40.0027 31.3912 38.7463 31.3912 37.1963V34.3899Z" fill="#404040"/>
<path d="M34.288 21.1443L34.288 16.5726L37.7168 16.5726C38.9792 16.5726 40.0026 17.596 40.0026 18.8584C40.0026 20.1209 38.9792 21.1443 37.7168 21.1443L34.288 21.1443Z" fill="#404040"/>
<path fill-rule="evenodd" clip-rule="evenodd" d="M19.6448 7.44828C19.6448 8.21714 19.5675 8.96794 19.4203 9.69335H24.7933C26.6132 9.69335 28.2893 10.6821 29.1695 12.2749L32.8164 18.8741C33.1847 19.5406 32.7027 20.3577 31.9412 20.3577H14.032V35.5125H37.0039V25.1992C37.0039 22.2013 36.2945 19.2459 34.9337 16.5746L33.3212 13.4094C30.9313 8.7182 26.1116 5.7644 20.8467 5.7644H19.5194C19.602 6.31367 19.6448 6.87598 19.6448 7.44828ZM29.4771 24.4911C28.4381 24.9067 27.5465 25.6225 26.9161 26.5471C26.5241 27.122 27.0575 27.8747 27.7298 27.6954L33.0842 26.2675C33.7408 26.0925 34.1976 25.4978 34.1976 24.8183C34.1976 23.7572 33.1259 23.0316 32.1407 23.4257L29.4771 24.4911Z" fill="#404040"/>
</svg>
