<svg width="57" height="49" viewBox="0 0 57 49" fill="none" xmlns="http://www.w3.org/2000/svg">
<path d="M30.3866 9.70537C30.763 9.92267 30.9102 10.3789 30.7136 10.7193L30.3563 11.3382C30.1598 11.6785 29.6911 11.7792 29.3147 11.5619L27.9461 10.7718C27.5697 10.5545 26.9538 10.1989 26.5775 9.98158L25.2088 9.1914C24.8325 8.9741 24.2166 8.61852 23.8402 8.40122L22.4716 7.61104C22.0952 7.39374 21.948 6.93746 22.1445 6.59709L22.5018 5.97823C22.6983 5.63786 23.1671 5.53717 23.5434 5.75447L30.3866 9.70537Z" fill="#404040"/>
<path d="M29.6561 9.48659C29.9539 9.65854 29.7511 10.5725 29.2055 11.5176L28.2134 13.236C27.6677 14.1811 26.9776 14.8137 26.6798 14.6417L25.5968 14.0164C25.299 13.8445 24.8116 13.5631 24.5138 13.3912L23.4308 12.7659C23.133 12.5939 22.6456 12.3126 22.3478 12.1406L21.2648 11.5154C20.967 11.3434 21.1697 10.4295 21.7154 9.48435L22.7075 7.76598C23.2531 6.82087 23.9433 6.18829 24.2411 6.36024L29.6561 9.48659Z" fill="#404040"/>
<path d="M40.367 24.182C41.9398 24.7321 43.1382 25.782 43.1382 25.782L42.0716 27.6294C42.0716 27.6294 39.2717 26.3021 37.6623 26.7334C36.9338 26.9286 34.6816 29.0489 32.5383 30.1311C29.6409 31.5941 25.1304 32.3907 22.7487 32.7306C21.7102 32.8788 20.662 32.6506 19.7535 32.1261L9.95824 26.4708C9.19933 26.0327 8.93729 25.0784 9.37294 24.308L9.37979 24.312L10.569 22.2522L15.4019 13.8813L16.5911 11.8215L18.0223 9.34268C18.4573 8.58924 19.4222 8.32607 20.1811 8.76422L25.6488 11.921L28.3861 13.5014L29.3287 14.0456C31.213 15.1334 32.1352 17.3094 31.8185 19.462C31.7115 20.1899 31.6536 20.8041 31.7153 21.0344C32.1057 22.4915 33.4913 23.2915 35.1436 23.6296C35.6814 23.7396 38.4308 23.5048 40.367 24.182Z" fill="#404040"/>
<path d="M45.3894 40.5364C45.3894 42.8913 43.482 44.7987 41.1271 44.7987C38.7722 44.7987 36.8649 42.8913 36.8649 40.5364C36.8649 38.1815 41.1271 34.1323 41.1271 34.1323C41.1271 34.1323 45.3894 38.1815 45.3894 40.5364Z" fill="#0057D9"/>
<path d="M17.7869 9.85727C16.8116 9.29422 15.7351 8.92876 14.6186 8.78178C13.5021 8.63479 12.3676 8.70915 11.2799 9.00061C10.1922 9.29206 9.1725 9.79491 8.2791 10.4804C7.38571 11.166 6.63608 12.0207 6.07303 12.996C5.50998 13.9712 5.14453 15.0478 4.99754 16.1643C4.85056 17.2807 4.92491 18.4152 5.21637 19.503C5.50783 20.5907 6.01068 21.6104 6.6962 22.5038C7.38173 23.3972 8.23651 24.1468 9.21175 24.7098L10.498 22.4819C9.81535 22.0878 9.217 21.5631 8.73714 20.9377C8.25727 20.3123 7.90527 19.5985 7.70125 18.8371C7.49723 18.0757 7.44518 17.2816 7.54807 16.5001C7.65096 15.7185 7.90678 14.9649 8.30091 14.2823C8.69505 13.5996 9.21979 13.0012 9.84517 12.5214C10.4705 12.0415 11.1843 11.6895 11.9457 11.4855C12.7071 11.2815 13.5013 11.2294 14.2828 11.3323C15.0643 11.4352 15.8179 11.691 16.5006 12.0852L17.7869 9.85727Z" fill="#404040"/>
</svg>
