<svg width="42" height="42" viewBox="0 0 42 42" fill="none" xmlns="http://www.w3.org/2000/svg">
<path fill-rule="evenodd" clip-rule="evenodd" d="M14.6006 3.08889C12.6437 4.73983 11.4006 7.21022 11.4006 9.97095V31.7344C11.4006 34.4951 12.6437 36.9655 14.6006 38.6164V39.7758H15.4005V39.2188C16.8307 40.1761 18.5504 40.7344 20.4006 40.7344H21.4478C23.2633 40.7344 24.9531 40.1969 26.367 39.2723H26.6595V39.0727C28.9523 37.4414 30.4478 34.7626 30.4478 31.7344V9.97095C30.4478 5.00038 26.4184 0.970947 21.4478 0.970947H20.4006C18.5397 0.970947 16.8106 1.53578 15.3755 2.50335H14.6006V3.08889ZM14.6006 3.08889C14.8478 2.88027 15.1065 2.68474 15.3755 2.50335H15.4005V39.2188C15.1225 39.0327 14.8555 38.8315 14.6006 38.6164V3.08889ZM26.6595 39.0727V2.78335H25.8596V39.2723H26.367C26.4659 39.2076 26.5634 39.1411 26.6595 39.0727ZM20.2301 2.50335V16.1028H21.0301V2.50335H20.2301ZM17.4153 25.1694V1.99999H18.2153V25.1694H17.4153ZM23.0448 1.99999V6.53313H23.8448V1.99999H23.0448ZM20.2301 40V26.4005H21.0301V40H20.2301ZM17.4153 35.4669V40H18.2153V35.4669H17.4153ZM23.0448 39.9998V16.8305H23.8448V39.9998H23.0448ZM20.2301 19.2372V23.2666H21.0301V19.2372H20.2301ZM17.4153 32.3329V28.3034H18.2153V32.3329H17.4153ZM23.0448 9.66697V13.6964H23.8448V9.66697H23.0448Z" fill="#404040"/>
<path d="M33.8573 17.1554C33.8573 15.8299 32.7828 14.7554 31.4573 14.7554H30.5241V27.4797H31.4573C32.7828 27.4797 33.8573 26.4052 33.8573 25.0797V17.1554Z" stroke="#404040" stroke-width="1.8"/>
<path d="M40.2 19.7706C40.2 19.1078 39.6628 18.5706 39 18.5706H33.8001V23.3705H39C39.6628 23.3705 40.2 22.8332 40.2 22.1705V19.7706Z" stroke="#404040" stroke-width="1.8"/>
<path d="M1.80084 22.1705C1.80084 22.8332 2.3381 23.3705 3.00084 23.3705H8.2007V18.5706H3.00084C2.3381 18.5706 1.80084 19.1078 1.80084 19.7706L1.80084 22.1705Z" stroke="#404040" stroke-width="1.8"/>
<path d="M8.14359 25.0801C8.14359 26.4056 9.2181 27.4801 10.5436 27.4801H11.4768L11.4768 14.7558H10.5436C9.2181 14.7558 8.14359 15.8303 8.14359 17.1558L8.14359 25.0801Z" stroke="#404040" stroke-width="1.8"/>
<path d="M36.7037 9.80488L41 9.80488L41 4.19512L36.7037 4.19512L36.7037 2L31 7L36.7037 12L36.7037 9.80488Z" fill="#0057D9"/>
<path d="M5.2963 32.1951H1L1 37.8049H5.2963L5.2963 40L11 35L5.2963 30L5.2963 32.1951Z" fill="#0057D9"/>
<rect x="11.4768" y="0.970947" width="19.0472" height="39.7634" rx="9" stroke="#404040" stroke-width="1.8"/>
</svg>
