<svg width="40" height="39" viewBox="0 0 40 39" fill="none" xmlns="http://www.w3.org/2000/svg">
<mask id="path-1-inside-1" fill="white">
<path d="M40.0001 19.5259C40.0001 29.801 31.6705 38.1306 21.3954 38.1306C11.1203 38.1306 2.79071 29.801 2.79071 19.5259C2.79071 9.25086 11.1203 0.921265 21.3954 0.921265C31.6705 0.921265 40.0001 9.25086 40.0001 19.5259Z"/>
</mask>
<path d="M38.0001 19.5259C38.0001 28.6965 30.5659 36.1306 21.3954 36.1306V40.1306C32.775 40.1306 42.0001 30.9056 42.0001 19.5259H38.0001ZM21.3954 36.1306C12.2249 36.1306 4.79071 28.6965 4.79071 19.5259H0.79071C0.79071 30.9056 10.0157 40.1306 21.3954 40.1306V36.1306ZM4.79071 19.5259C4.79071 10.3554 12.2249 2.92126 21.3954 2.92126V-1.07874C10.0157 -1.07874 0.79071 8.1463 0.79071 19.5259H4.79071ZM21.3954 2.92126C30.5659 2.92126 38.0001 10.3554 38.0001 19.5259H42.0001C42.0001 8.1463 32.775 -1.07874 21.3954 -1.07874V2.92126Z" fill="#404040" mask="url(#path-1-inside-1)"/>
<path fill-rule="evenodd" clip-rule="evenodd" d="M21.3954 35.3399C30.1292 35.3399 37.2094 28.2597 37.2094 19.5259C37.2094 10.7921 30.1292 3.71191 21.3954 3.71191C12.6616 3.71191 5.58142 10.7921 5.58142 19.5259C5.58142 28.2597 12.6616 35.3399 21.3954 35.3399ZM21.3956 29.0688C26.666 29.0688 30.9385 24.7963 30.9385 19.5259C30.9385 14.2555 26.666 9.98298 21.3956 9.98298C16.1252 9.98298 11.8527 14.2555 11.8527 19.5259C11.8527 24.7963 16.1252 29.0688 21.3956 29.0688Z" fill="#404040"/>
<path fill-rule="evenodd" clip-rule="evenodd" d="M2.98164 8.46943C4.41 6.10611 7.64047 6.12583 9.59309 8.07845L11.8568 10.3422C9.5984 12.6007 8.20152 15.7208 8.20152 19.1671C8.20152 22.6134 9.59843 25.7335 11.8569 27.992L9.59309 30.2558C7.64047 32.2085 4.41 32.2282 2.98164 29.8649C2.44437 28.9759 1.97362 28.0457 1.57431 27.0817C0.534951 24.5725 0 21.8831 0 19.1671C0 16.4512 0.53495 13.7618 1.57431 11.2526C1.97362 10.2886 2.44437 9.35838 2.98164 8.46943Z" fill="#0057D9"/>
<circle cx="21.3954" cy="19.526" r="3.54451" fill="#404040"/>
<circle cx="21.5317" cy="25.9334" r="0.954292" transform="rotate(180 21.5317 25.9334)" fill="#404040"/>
<circle cx="15.1242" cy="19.5259" r="0.954292" transform="rotate(-90 15.1242 19.5259)" fill="#404040"/>
<circle cx="17.0009" cy="24.0567" r="0.954292" transform="rotate(-135 17.0009 24.0567)" fill="#404040"/>
<circle cx="26.0626" cy="24.0566" r="0.954292" transform="rotate(135 26.0626 24.0566)" fill="#404040"/>
<circle cx="21.5317" cy="13.1186" r="0.954292" transform="rotate(180 21.5317 13.1186)" fill="#404040"/>
<circle cx="27.939" cy="19.5259" r="0.954292" transform="rotate(-90 27.939 19.5259)" fill="#404040"/>
<circle cx="26.0623" cy="14.9953" r="0.954292" transform="rotate(-135 26.0623 14.9953)" fill="#404040"/>
<circle cx="17.001" cy="14.9952" r="0.954292" transform="rotate(135 17.001 14.9952)" fill="#404040"/>
</svg>
