<svg width="40" height="41" viewBox="0 0 40 41" fill="none" xmlns="http://www.w3.org/2000/svg">
<mask id="mask0" mask-type="alpha" maskUnits="userSpaceOnUse" x="0" y="0" width="40" height="41">
<rect y="0.734375" width="40" height="40" rx="5" fill="#C4C4C4"/>
</mask>
<g mask="url(#mask0)">
<path fill-rule="evenodd" clip-rule="evenodd" d="M37.7421 12.4493C38.9324 9.92077 39.5977 7.09637 39.5977 4.11657C39.5977 1.06521 38.9 -1.82319 37.6554 -4.39781C37.7406 -4.16058 37.7741 -3.94565 37.7778 -3.66507C37.7862 -3.04051 37.4262 -2.47424 36.904 -2.13153C35.156 -0.984334 30.945 1.77164 27.2783 4.11228C31.0923 6.54692 35.4953 9.43106 37.1029 10.4867C37.5122 10.7554 37.8399 11.1578 37.8659 11.6467C37.8808 11.9271 37.8407 12.1748 37.7421 12.4493ZM36.2133 15.126C36.0479 15.3236 35.8769 15.4623 35.6317 15.6083C35.0949 15.9278 34.4245 15.8991 33.8666 15.6183C31.999 14.678 27.5065 12.409 23.6459 10.4037C23.4445 14.9241 23.1482 20.1791 23.0379 22.0991C23.0098 22.5879 22.8251 23.0729 22.4147 23.3399C22.1728 23.4972 21.9318 23.587 21.6339 23.6382C27.695 23.1407 32.9745 19.8837 36.2133 15.126ZM18.6226 23.6562C8.45177 22.9447 0.421734 14.4684 0.421734 4.11657C0.421734 -6.63314 9.08096 -15.3604 19.8046 -15.4704C19.0604 -15.4418 18.407 -15.2551 17.9218 -15.0642C17.3388 -14.8348 17.0113 -14.2569 16.9755 -13.6314C16.8559 -11.5424 16.5749 -6.52201 16.3813 -2.1789C12.5267 -4.18104 8.043 -6.44562 6.17122 -7.38803C5.60866 -7.67127 4.94101 -7.67477 4.44936 -7.28111C4.00567 -6.92584 3.46682 -6.39617 3.05136 -5.68083C2.6341 -4.96237 2.44488 -4.2277 2.36047 -3.66435C2.26763 -3.04475 2.60441 -2.47214 3.12819 -2.12838C4.87745 -0.980383 9.08466 1.77312 12.7491 4.11228C9.08775 6.44946 4.88438 9.2004 3.13225 10.3503C2.60568 10.6958 2.26882 11.2723 2.36392 11.8949C2.44974 12.4568 2.63902 13.1883 3.0508 13.9057C3.46437 14.6263 4.00601 15.1575 4.45168 15.5123C4.94184 15.9025 5.60613 15.8972 6.16573 15.6154C8.03462 14.6745 12.5231 12.4075 16.3812 10.4036C16.5748 14.7496 16.8561 19.7747 16.9756 21.8622C17.0113 22.4858 17.3217 23.0807 17.8668 23.3858C18.1311 23.5337 18.3465 23.6133 18.6226 23.6562ZM20.1919 -15.4706C20.9454 -15.4427 21.6073 -15.2552 22.0984 -15.0636C22.6852 -14.8346 23.016 -14.2547 23.052 -13.6259C23.1717 -11.5336 23.4524 -6.5183 23.6458 -2.17904C27.6612 -4.26474 32.3601 -6.63563 34.078 -7.50003C34.5154 -7.72008 35.0277 -7.80267 35.4641 -7.58074C35.6971 -7.46226 35.8816 -7.31672 36.058 -7.11767C32.5477 -12.1229 26.7554 -15.4108 20.1919 -15.4706Z" fill="#404040"/>
<path d="M20.0099 -15.4718V23.7042" stroke="#404040"/>
<path d="M3.04596 -5.67749L36.9734 13.9105" stroke="#404040"/>
<path d="M3.0462 13.9104L36.9736 -5.6776" stroke="#404040"/>
<circle cx="20.0129" cy="4.11236" r="4.25826" transform="rotate(-15 20.0129 4.11236)" fill="#404040"/>
<path d="M39.5977 4.11644C39.5977 14.9346 30.8278 23.7044 20.0097 23.7044C9.19151 23.7044 0.421661 14.9346 0.421661 4.11644C0.421661 -6.70171 9.19151 -15.4716 20.0097 -15.4716C30.8278 -15.4716 39.5977 -6.70171 39.5977 4.11644ZM1.20518 4.11644C1.20518 14.5019 9.62423 22.9209 20.0097 22.9209C30.3951 22.9209 38.8141 14.5019 38.8141 4.11644C38.8141 -6.26899 30.3951 -14.688 20.0097 -14.688C9.62423 -14.688 1.20518 -6.26899 1.20518 4.11644Z" fill="#404040"/>
<path fill-rule="evenodd" clip-rule="evenodd" d="M21.6577 -32.2648C21.2821 -32.2814 20.9439 -32.0436 20.825 -31.687C20.5656 -30.9089 19.4651 -30.9089 19.2057 -31.687C19.0869 -32.0436 18.7486 -32.2814 18.3731 -32.2648C16.2508 -32.1709 14.1755 -31.8958 12.1625 -31.4546C11.794 -31.3739 11.5277 -31.0556 11.5051 -30.6791C11.4559 -29.8585 10.3897 -29.5742 9.93673 -30.2602C9.72898 -30.5748 9.33927 -30.7177 8.97981 -30.6039C6.97135 -29.968 5.03804 -29.163 3.19655 -28.2058C2.86239 -28.0321 2.68825 -27.6558 2.76375 -27.2868C2.92837 -26.4823 1.97452 -25.9294 1.36013 -26.4742C1.0782 -26.7242 0.665201 -26.7609 0.347881 -26.5577C-1.41724 -25.4272 -3.07868 -24.1491 -4.61902 -22.7407C-4.89645 -22.4871 -4.9675 -22.0796 -4.79939 -21.7434C-4.43267 -21.01 -5.21075 -20.2319 -5.94417 -20.5986C-6.28041 -20.7668 -6.68782 -20.6957 -6.94149 -20.4183C-8.35 -18.8779 -9.62823 -17.2163 -10.7587 -15.4511C-10.962 -15.1338 -10.9253 -14.7207 -10.6753 -14.4388C-10.1305 -13.8244 -10.6834 -12.8705 -11.4879 -13.0352C-11.8569 -13.1107 -12.2332 -12.9365 -12.4069 -12.6023C-13.3641 -10.7609 -14.1691 -8.82761 -14.805 -6.81918C-14.9188 -6.45971 -14.7759 -6.06999 -14.4613 -5.86223C-13.7753 -5.40929 -14.0596 -4.34304 -14.8802 -4.29379C-15.2567 -4.27119 -15.575 -4.00486 -15.6557 -3.63641C-16.0969 -1.62341 -16.372 0.451752 -16.4659 2.57399C-16.4825 2.94954 -16.2447 3.28783 -15.888 3.4067C-15.1099 3.66607 -15.11 4.76669 -15.8881 5.02606C-16.2447 5.14493 -16.4826 5.48322 -16.4659 5.85876C-16.372 7.98091 -16.097 10.056 -15.6559 12.0689C-15.5752 12.4374 -15.2569 12.7037 -14.8803 12.7263C-14.0597 12.7756 -13.7754 13.8419 -14.4614 14.2949C-14.7761 14.5027 -14.919 14.8924 -14.8052 15.2519C-14.1693 17.2604 -13.3644 19.1937 -12.4072 21.0352C-12.2334 21.3695 -11.857 21.5436 -11.488 21.4681C-10.6834 21.3035 -10.1303 22.2575 -10.6752 22.872C-10.9253 23.154 -10.962 23.567 -10.7587 23.8844C-9.62837 25.6494 -8.35036 27.3107 -6.94209 28.8509C-6.68839 29.1284 -6.28092 29.1995 -5.94463 29.0313C-5.2111 28.6646 -4.43294 29.4428 -4.7997 30.1763C-4.96785 30.5126 -4.89679 30.92 -4.61932 31.1738C-3.07903 32.5821 -1.41763 33.8603 0.347435 34.9907C0.664812 35.1939 1.07788 35.1573 1.35987 34.9072C1.97436 34.3623 2.92838 34.9154 2.76373 35.72C2.68821 36.089 2.86238 36.4654 3.19661 36.6392C5.03807 37.5964 6.97136 38.4013 8.9798 39.0372C9.3393 39.1511 9.72906 39.0081 9.93684 38.6934C10.3898 38.0074 11.4562 38.2917 11.5054 39.1124C11.528 39.4889 11.7944 39.8073 12.1629 39.888C14.1758 40.3291 16.2509 40.6042 18.373 40.6981C18.7486 40.7147 19.0869 40.4768 19.2058 40.1202C19.4652 39.342 20.5659 39.342 20.8253 40.1202C20.9442 40.4768 21.2825 40.7147 21.6581 40.6981C23.7802 40.6042 25.8553 40.3291 27.8682 39.888C28.2367 39.8073 28.503 39.4889 28.5256 39.1123C28.5749 38.2917 29.6413 38.0073 30.0943 38.6934C30.3021 39.0081 30.6919 39.151 31.0514 39.0372C33.0598 38.4012 34.993 37.5964 36.8343 36.6392C37.1686 36.4655 37.3427 36.0891 37.2672 35.72C37.1026 34.9154 38.0566 34.3624 38.6711 34.9073C38.9531 35.1573 39.3661 35.194 39.6835 34.9908C41.4485 33.8604 43.1099 32.5823 44.6501 31.174C44.9276 30.9203 44.9986 30.5128 44.8305 30.1765C44.4637 29.443 45.2419 28.6647 45.9755 29.0315C46.3118 29.1997 46.7193 29.1286 46.973 28.8511C48.3814 27.3107 49.6596 25.6492 50.79 23.8841C50.9933 23.5667 50.9566 23.1536 50.7065 22.8716C50.1616 22.2571 50.7146 21.303 51.5193 21.4676C51.8883 21.5432 52.2647 21.369 52.4385 21.0347C53.3955 19.1935 54.2003 17.2604 54.8362 15.2522C54.95 14.8927 54.807 14.503 54.4924 14.2952C53.8063 13.8422 54.0907 12.7758 54.9113 12.7266C55.2878 12.704 55.6062 12.4376 55.6869 12.0691C56.128 10.0561 56.4031 7.98099 56.497 5.85875C56.5136 5.48319 56.2757 5.14489 55.9191 5.02601C55.1409 4.76663 55.1409 3.66596 55.9191 3.40658C56.2757 3.2877 56.5136 2.94939 56.497 2.57384C56.403 0.45171 56.1279 -1.62334 55.6868 -3.63623C55.6061 -4.00471 55.2878 -4.27106 54.9112 -4.29366C54.0906 -4.34291 53.8062 -5.40924 54.4923 -5.86221C54.807 -6.06998 54.9499 -6.45972 54.8361 -6.81922C54.2001 -8.82771 53.3951 -10.7611 52.4379 -12.6026C52.2642 -12.9367 51.8878 -13.1109 51.5189 -13.0354C50.7144 -12.8707 50.1614 -13.8246 50.7062 -14.439C50.9562 -14.7209 50.9929 -15.1339 50.7897 -15.4512C49.6592 -17.2164 48.3811 -18.8778 46.9726 -20.4182C46.719 -20.6956 46.3115 -20.7667 45.9753 -20.5985C45.2418 -20.2318 44.4637 -21.0099 44.8304 -21.7434C44.9986 -22.0796 44.9275 -22.487 44.6501 -22.7407C43.1096 -24.1493 41.4479 -25.4275 39.6826 -26.558C39.3653 -26.7612 38.9523 -26.7246 38.6703 -26.4746C38.0559 -25.9297 37.1021 -26.4826 37.2667 -27.2871C37.3422 -27.6561 37.168 -28.0325 36.8339 -28.2062C34.9925 -29.1633 33.0593 -29.9681 31.051 -30.604C30.6916 -30.7178 30.3019 -30.5749 30.0941 -30.2603C29.6412 -29.5743 28.575 -29.8586 28.5258 -30.6791C28.5032 -31.0556 28.2369 -31.3739 27.8685 -31.4546C25.8553 -31.8958 23.78 -32.1709 21.6577 -32.2648ZM28.7272 -31.2555C29.2395 -31.1301 29.7476 -30.9939 30.2512 -30.8471L28.7272 -31.2555ZM37.6819 -27.7511C38.0615 -27.5408 38.4371 -27.324 38.8083 -27.1007L37.6819 -27.7511ZM51.3338 -14.5747C51.5564 -14.2044 51.7727 -13.8298 51.9824 -13.4511L51.3338 -14.5747ZM55.074 -6.03737C55.2245 -5.52169 55.364 -5.00129 55.4922 -4.47643L55.074 -6.03737ZM56.5331 4.1041C56.5332 4.14161 56.5332 4.17912 56.5332 4.21666C56.5332 4.25419 56.5332 4.29171 56.5331 4.32921L56.5331 4.1041ZM55.493 12.9064C55.3644 13.4335 55.2243 13.9561 55.073 14.474L55.493 12.9064ZM51.9999 21.8528C51.7789 22.2529 51.5505 22.6483 51.3151 23.039L51.9999 21.8528ZM45.9319 29.9438C45.869 30.0071 45.806 30.0702 45.7427 30.133L45.9319 29.9438ZM38.8312 35.5203C38.4449 35.7529 38.054 35.9787 37.6585 36.1973L38.8312 35.5203ZM30.2804 39.2719C29.7576 39.4248 29.23 39.5662 28.6978 39.696L30.2804 39.2719ZM20.1791 40.734C20.1246 40.7343 20.0701 40.7344 20.0155 40.7344C19.961 40.7344 19.9065 40.7343 19.852 40.734L20.1791 40.734ZM11.3266 39.6944C10.7989 39.5656 10.2757 39.4253 9.75722 39.2738L11.3266 39.6944ZM2.37415 36.1982C1.97762 35.979 1.5856 35.7526 1.19827 35.5193L2.37415 36.1982ZM-5.73696 30.1078C-5.78332 30.0617 -5.82955 30.0155 -5.87566 29.9691L-5.73696 30.1078ZM-11.2877 23.033C-11.5206 22.6463 -11.7466 22.2549 -11.9655 21.859L-11.2877 23.033ZM-15.0427 14.4714C-15.1934 13.9553 -15.333 13.4345 -15.4613 12.9092L-15.0427 14.4714ZM-16.5022 4.26438C-16.5022 4.24847 -16.5022 4.23257 -16.5022 4.21666C-16.5022 4.20074 -16.5022 4.18484 -16.5022 4.16893L-16.5022 4.26438ZM-15.459 -4.48542C-15.3321 -5.00425 -15.1942 -5.51874 -15.0455 -6.02861L-15.459 -4.48542ZM-11.9532 -13.4479C-11.7423 -13.8288 -11.5248 -14.2055 -11.3008 -14.5779L-11.9532 -13.4479ZM1.22415 -27.1016C1.59446 -27.3242 1.96904 -27.5405 2.34774 -27.7503L1.22415 -27.1016ZM9.77465 -30.8456C10.2817 -30.9934 10.7932 -31.1306 11.3091 -31.2568L9.77465 -30.8456ZM20.0155 26.1273C7.91462 26.1273 -1.89511 16.3176 -1.89511 4.21666C-1.89511 -7.88425 7.91462 -17.694 20.0155 -17.694C32.1164 -17.694 41.9262 -7.88425 41.9262 4.21666C41.9262 16.3176 32.1164 26.1273 20.0155 26.1273Z" fill="#404040"/>
<path d="M19.7479 30.7891C19.6436 29.9673 20.2252 29.2165 21.0471 29.1121L26.0072 28.4823C26.8291 28.378 27.5799 28.9596 27.6842 29.7815L28.314 34.7416C28.4184 35.5635 27.8367 36.3143 27.0149 36.4186L22.0547 37.0484C21.2329 37.1528 20.4821 36.5711 20.3777 35.7493L19.7479 30.7891Z" fill="#0057D9" stroke="white"/>
</g>
</svg>
