<svg width="42" height="39" viewBox="0 0 42 39" fill="none" xmlns="http://www.w3.org/2000/svg">
<path fill-rule="evenodd" clip-rule="evenodd" d="M21.0001 38.5568C31.6472 38.5568 40.2785 29.9255 40.2785 19.2784C40.2785 8.63123 31.6472 0 21.0001 0C10.3529 0 1.72168 8.63123 1.72168 19.2784C1.72168 29.9255 10.3529 38.5568 21.0001 38.5568ZM20.9999 23.8143C23.5051 23.8143 25.536 21.7835 25.536 19.2782C25.536 16.773 23.5051 14.7422 20.9999 14.7422C18.4947 14.7422 16.4638 16.773 16.4638 19.2782C16.4638 21.7835 18.4947 23.8143 20.9999 23.8143Z" fill="#404040"/>
<path fill-rule="evenodd" clip-rule="evenodd" d="M11.6657 5.43189C13.3696 4.72546 14.5433 4.23884 14.7648 5.47904C15.0265 6.94451 15.2447 9.71472 14.7648 9.8147C14.5054 9.86873 14.2461 9.88706 13.99 9.90517C13.0056 9.97476 12.0688 10.041 11.3627 12.1176C11.0412 12.4392 10.7417 12.5187 10.4504 12.5961C9.96778 12.7243 9.50776 12.8464 9.00749 14.0542C8.54506 15.1706 7.91825 17.7133 7.91825 18.9217C7.91825 20.1301 8.15626 21.3266 8.61869 22.4431C9.08112 23.5595 9.75892 24.5739 10.6134 25.4283C11.4679 26.2828 12.3572 27.0342 13.5987 27.767C14.0724 28.0466 14.5449 28.2195 14.9801 28.3787C15.6855 28.6369 16.2929 28.8592 16.649 29.4418C17.2247 30.3839 16.6624 31.8093 15.5499 32.8439C14.6698 33.6622 13.5446 33.1859 12.4292 32.7138C12.1345 32.589 11.8405 32.4646 11.5519 32.3644C10.06 31.7464 8.6834 30.8853 7.47723 29.8178C6.40511 30.051 5.27734 29.7638 4.49487 28.8203C3.6708 27.8266 2.97333 26.7276 2.42292 25.5476C1.2966 23.133 0.825721 20.4645 1.05759 17.8103C1.28947 15.156 2.21592 12.6096 3.74385 10.4269C4.49053 9.36022 5.36799 8.3988 6.35189 7.56304C7.11508 6.91475 8.02928 6.73779 8.89205 6.9213C9.72414 6.35078 10.6153 5.86698 11.5519 5.47904L11.6657 5.43189ZM34.5227 29.8178C35.5949 30.051 36.7227 29.7638 37.5051 28.8203C38.3292 27.8266 39.0267 26.7276 39.5771 25.5476C40.7034 23.133 41.1743 20.4645 40.9424 17.8103C40.7106 15.156 39.7841 12.6096 38.2562 10.4269C37.5095 9.36022 36.632 8.3988 35.6481 7.56304C34.8849 6.91474 33.9707 6.73778 33.1079 6.92131C32.2758 6.35079 31.3847 5.86698 30.4481 5.47904C30.4099 5.46322 30.372 5.4475 30.3343 5.43189C28.6304 4.72546 27.4567 4.23884 27.2352 5.47904C26.9735 6.94451 26.7553 9.71472 27.2352 9.8147C27.4945 9.86873 27.7539 9.88706 28.01 9.90517C28.9944 9.97476 29.9312 10.041 30.6372 12.1176C30.9588 12.4392 31.2583 12.5187 31.5495 12.5961C32.0322 12.7243 32.4922 12.8464 32.9925 14.0542C33.4549 15.1706 34.0817 17.7133 34.0817 18.9217C34.0817 20.1301 33.8437 21.3266 33.3813 22.4431C32.9188 23.5595 32.241 24.5739 31.3866 25.4283C30.5321 26.2828 29.6428 27.0342 28.4013 27.767C27.9276 28.0466 27.4551 28.2195 27.0199 28.3787C26.3145 28.6369 25.707 28.8592 25.351 29.4418C24.7753 30.3839 25.3376 31.8093 26.4501 32.8439C27.3301 33.6622 28.4554 33.1859 29.5707 32.7138C29.8654 32.589 30.1594 32.4646 30.4481 32.3644C31.9399 31.7464 33.3166 30.8853 34.5227 29.8178Z" fill="#0057D9"/>
<mask id="path-3-outside-1" maskUnits="userSpaceOnUse" x="0" y="3.71643" width="42" height="31" fill="black">
<rect fill="white" y="3.71643" width="42" height="31"/>
<path fill-rule="evenodd" clip-rule="evenodd" d="M11.6657 5.43189C13.3696 4.72546 14.5433 4.23884 14.7648 5.47904C15.0265 6.94451 15.2447 9.71472 14.7648 9.8147C14.5054 9.86873 14.2461 9.88706 13.99 9.90517C13.0056 9.97476 12.0688 10.041 11.3627 12.1176C11.0412 12.4392 10.7417 12.5187 10.4504 12.5961C9.96778 12.7243 9.50776 12.8464 9.00749 14.0542C8.54506 15.1706 7.91825 17.7133 7.91825 18.9217C7.91825 20.1301 8.15626 21.3266 8.61869 22.4431C9.08112 23.5595 9.75892 24.5739 10.6134 25.4283C11.4679 26.2828 12.3572 27.0342 13.5987 27.767C14.0724 28.0466 14.5449 28.2195 14.9801 28.3787C15.6855 28.6369 16.2929 28.8592 16.649 29.4418C17.2247 30.3839 16.6624 31.8093 15.5499 32.8439C14.6698 33.6622 13.5446 33.1859 12.4292 32.7138C12.1345 32.589 11.8405 32.4646 11.5519 32.3644C10.06 31.7464 8.6834 30.8853 7.47723 29.8178C6.40511 30.051 5.27734 29.7638 4.49487 28.8203C3.6708 27.8266 2.97333 26.7276 2.42292 25.5476C1.2966 23.133 0.825721 20.4645 1.05759 17.8103C1.28947 15.156 2.21592 12.6096 3.74385 10.4269C4.49053 9.36022 5.36799 8.3988 6.35189 7.56304C7.11508 6.91475 8.02928 6.73779 8.89205 6.9213C9.72414 6.35078 10.6153 5.86698 11.5519 5.47904L11.6657 5.43189ZM34.5227 29.8178C35.5949 30.051 36.7227 29.7638 37.5051 28.8203C38.3292 27.8266 39.0267 26.7276 39.5771 25.5476C40.7034 23.133 41.1743 20.4645 40.9424 17.8103C40.7106 15.156 39.7841 12.6096 38.2562 10.4269C37.5095 9.36022 36.632 8.3988 35.6481 7.56304C34.8849 6.91474 33.9707 6.73778 33.1079 6.92131C32.2758 6.35079 31.3847 5.86698 30.4481 5.47904C30.4099 5.46322 30.372 5.4475 30.3343 5.43189C28.6304 4.72546 27.4567 4.23884 27.2352 5.47904C26.9735 6.94451 26.7553 9.71472 27.2352 9.8147C27.4945 9.86873 27.7539 9.88706 28.01 9.90517C28.9944 9.97476 29.9312 10.041 30.6372 12.1176C30.9588 12.4392 31.2583 12.5187 31.5495 12.5961C32.0322 12.7243 32.4922 12.8464 32.9925 14.0542C33.4549 15.1706 34.0817 17.7133 34.0817 18.9217C34.0817 20.1301 33.8437 21.3266 33.3813 22.4431C32.9188 23.5595 32.241 24.5739 31.3866 25.4283C30.5321 26.2828 29.6428 27.0342 28.4013 27.767C27.9276 28.0466 27.4551 28.2195 27.0199 28.3787C26.3145 28.6369 25.707 28.8592 25.351 29.4418C24.7753 30.3839 25.3376 31.8093 26.4501 32.8439C27.3301 33.6622 28.4554 33.1859 29.5707 32.7138C29.8654 32.589 30.1594 32.4646 30.4481 32.3644C31.9399 31.7464 33.3166 30.8853 34.5227 29.8178Z"/>
</mask>
<path d="M14.7648 5.47904L13.7804 5.65483V5.65483L14.7648 5.47904ZM11.6657 5.43189L12.0485 6.35569L12.0486 6.35564L11.6657 5.43189ZM14.7648 9.8147L14.5608 8.83572H14.5608L14.7648 9.8147ZM13.99 9.90517L13.9195 8.90766H13.9195L13.99 9.90517ZM11.3627 12.1176L12.0699 12.8247L12.2345 12.6601L12.3095 12.4395L11.3627 12.1176ZM10.4504 12.5961L10.1938 11.6296L10.1938 11.6296L10.4504 12.5961ZM9.00749 14.0542L9.93137 14.4369H9.93137L9.00749 14.0542ZM7.91825 18.9217H6.91825V18.9217L7.91825 18.9217ZM8.61869 22.4431L9.54257 22.0604L8.61869 22.4431ZM10.6134 25.4283L11.3205 24.7212L11.3205 24.7212L10.6134 25.4283ZM13.5987 27.767L13.0904 28.6282L13.0904 28.6282L13.5987 27.767ZM14.9801 28.3787L15.3237 27.4396L15.3237 27.4396L14.9801 28.3787ZM16.649 29.4418L15.7957 29.9633L15.7957 29.9633L16.649 29.4418ZM15.5499 32.8439L16.2308 33.5762H16.2308L15.5499 32.8439ZM12.4292 32.7138L12.0394 33.6347L12.0394 33.6347L12.4292 32.7138ZM11.5519 32.3644L11.1692 33.2882L11.1963 33.2994L11.2239 33.309L11.5519 32.3644ZM7.47723 29.8178L8.13995 29.069L7.7602 28.7329L7.26467 28.8407L7.47723 29.8178ZM4.49487 28.8203L5.26462 28.1819H5.26462L4.49487 28.8203ZM2.42292 25.5476L3.32917 25.1249L3.32917 25.1249L2.42292 25.5476ZM1.05759 17.8103L2.0538 17.8973L1.05759 17.8103ZM3.74385 10.4269L2.92463 9.85341L2.92463 9.85341L3.74385 10.4269ZM6.35189 7.56304L6.99929 8.32519L6.35189 7.56304ZM8.89205 6.9213L8.68401 7.89942L9.10367 7.98868L9.45754 7.74606L8.89205 6.9213ZM11.5519 5.47904L11.9346 6.40292L11.9348 6.40283L11.5519 5.47904ZM37.5051 28.8203L36.7354 28.1819V28.1819L37.5051 28.8203ZM34.5227 29.8178L34.7353 28.8407L34.2398 28.7329L33.86 29.069L34.5227 29.8178ZM39.5771 25.5476L38.6709 25.1249L39.5771 25.5476ZM40.9424 17.8103L39.9462 17.8973L40.9424 17.8103ZM38.2562 10.4269L37.4369 11.0004V11.0004L38.2562 10.4269ZM35.6481 7.56304L35.0007 8.32519V8.32519L35.6481 7.56304ZM33.1079 6.92131L32.5424 7.74607L32.8963 7.9887L33.316 7.89943L33.1079 6.92131ZM30.4481 5.47904L30.8307 4.55516L30.8307 4.55516L30.4481 5.47904ZM30.3343 5.43189L29.9513 6.35564L29.9513 6.35565L30.3343 5.43189ZM27.2352 5.47904L26.2508 5.30324L26.2508 5.30324L27.2352 5.47904ZM27.2352 9.8147L27.4391 8.83572L27.2352 9.8147ZM28.01 9.90517L28.0805 8.90766H28.0805L28.01 9.90517ZM30.6372 12.1176L29.6904 12.4395L29.7654 12.6601L29.9301 12.8247L30.6372 12.1176ZM31.5495 12.5961L31.2929 13.5626L31.5495 12.5961ZM32.9925 14.0542L32.0686 14.4369V14.4369L32.9925 14.0542ZM31.3866 25.4283L30.6795 24.7212L30.6795 24.7212L31.3866 25.4283ZM28.4013 27.767L28.9096 28.6282L28.9096 28.6282L28.4013 27.767ZM27.0199 28.3787L26.6762 27.4396L26.6762 27.4396L27.0199 28.3787ZM25.351 29.4418L26.2043 29.9633L26.2043 29.9633L25.351 29.4418ZM26.4501 32.8439L25.7691 33.5762L26.4501 32.8439ZM29.5707 32.7138L29.9606 33.6347H29.9606L29.5707 32.7138ZM30.4481 32.3644L30.7761 33.309L30.8037 33.2994L30.8307 33.2882L30.4481 32.3644ZM15.7492 5.30324C15.6664 4.83979 15.46 4.35253 15.0011 4.03053C14.5556 3.7179 14.0545 3.69106 13.6688 3.73073C13.2811 3.7706 12.8779 3.89114 12.5025 4.02464C12.1203 4.16056 11.702 4.33428 11.2827 4.50813L12.0486 6.35564C12.4813 6.17628 12.8486 6.02426 13.1727 5.90901C13.5035 5.79135 13.727 5.73529 13.8734 5.72023C14.0219 5.70496 13.9623 5.74485 13.8523 5.66771C13.729 5.58119 13.7524 5.49818 13.7804 5.65483L15.7492 5.30324ZM14.9687 10.7937C15.5151 10.6799 15.7495 10.2393 15.8261 10.0682C15.9208 9.85662 15.967 9.62922 15.9937 9.4444C16.0491 9.06159 16.0566 8.59195 16.0424 8.12824C16.0135 7.18822 15.888 6.08075 15.7492 5.30324L13.7804 5.65483C13.9032 6.34279 14.0177 7.35316 14.0433 8.18962C14.0564 8.61414 14.0448 8.94739 14.0143 9.15791C13.9982 9.26975 13.9847 9.28663 14.0005 9.25143C14.0094 9.23145 14.0429 9.16028 14.1199 9.07884C14.203 8.99091 14.3489 8.87988 14.5608 8.83572L14.9687 10.7937ZM14.0605 10.9027C14.3064 10.8853 14.6327 10.8637 14.9687 10.7937L14.5608 8.83572C14.3782 8.87376 14.1858 8.88883 13.9195 8.90766L14.0605 10.9027ZM12.3095 12.4395C12.6245 11.513 12.9313 11.2159 13.1107 11.1013C13.3105 10.9735 13.5351 10.9398 14.0605 10.9027L13.9195 8.90766C13.4605 8.94011 12.7245 8.97435 12.0333 9.41624C11.3217 9.87124 10.807 10.6456 10.416 11.7957L12.3095 12.4395ZM10.7071 13.5626C11.027 13.4776 11.5499 13.3447 12.0699 12.8247L10.6556 11.4105C10.5813 11.4848 10.5247 11.5181 10.477 11.5401C10.4149 11.5687 10.3478 11.5887 10.1938 11.6296L10.7071 13.5626ZM9.93137 14.4369C10.1493 13.9107 10.3105 13.7427 10.3744 13.6896C10.4257 13.647 10.4634 13.6273 10.7071 13.5626L10.1938 11.6296C9.95481 11.693 9.52117 11.7985 9.09671 12.151C8.68493 12.4929 8.36593 12.9899 8.08361 13.6715L9.93137 14.4369ZM8.91825 18.9217C8.91825 18.4377 9.05208 17.5928 9.26367 16.6791C9.47243 15.7776 9.73013 14.9227 9.93137 14.4369L8.08361 13.6715C7.82242 14.3021 7.5355 15.2767 7.31524 16.2278C7.09782 17.1667 6.91825 18.1973 6.91825 18.9217H8.91825ZM9.54257 22.0604C9.13039 21.0653 8.91825 19.9988 8.91825 18.9217L6.91825 18.9217C6.91825 20.2614 7.18212 21.588 7.69481 22.8257L9.54257 22.0604ZM11.3205 24.7212C10.5589 23.9596 9.95475 23.0555 9.54257 22.0604L7.69481 22.8257C8.2075 24.0635 8.95896 25.1881 9.90628 26.1354L11.3205 24.7212ZM14.107 26.9058C12.9532 26.2248 12.1294 25.5301 11.3205 24.7212L9.90628 26.1354C10.8063 27.0355 11.7612 27.8436 13.0904 28.6282L14.107 26.9058ZM15.3237 27.4396C14.8814 27.2778 14.4912 27.1326 14.1069 26.9058L13.0904 28.6282C13.6535 28.9605 14.2083 29.1612 14.6364 29.3178L15.3237 27.4396ZM17.5023 28.9204C16.9333 27.9894 15.9572 27.6715 15.3237 27.4396L14.6364 29.3178C15.4137 29.6023 15.6525 29.729 15.7957 29.9633L17.5023 28.9204ZM16.2308 33.5762C16.8849 32.968 17.4078 32.219 17.6781 31.4336C17.9467 30.6531 17.9954 29.7273 17.5023 28.9204L15.7957 29.9633C15.8783 30.0984 15.9337 30.3564 15.787 30.7827C15.6419 31.2042 15.3274 31.6852 14.8689 32.1115L16.2308 33.5762ZM12.0394 33.6347C12.5652 33.8572 13.2517 34.1549 13.9364 34.2527C14.6837 34.3594 15.5152 34.2417 16.2308 33.5762L14.8689 32.1115C14.7045 32.2644 14.5333 32.3177 14.2192 32.2728C13.8424 32.219 13.4087 32.0425 12.819 31.7929L12.0394 33.6347ZM11.2239 33.309C11.4757 33.3964 11.7386 33.5073 12.0394 33.6347L12.819 31.7929C12.5305 31.6707 12.2054 31.5327 11.8799 31.4197L11.2239 33.309ZM6.8145 30.5667C8.10357 31.7075 9.57483 32.6278 11.1692 33.2882L11.9346 31.4405C10.5453 30.865 9.26323 30.063 8.13995 29.069L6.8145 30.5667ZM3.72513 29.4586C4.7744 30.7239 6.29817 31.0977 7.68978 30.795L7.26467 28.8407C6.51204 29.0044 5.78028 28.8037 5.26462 28.1819L3.72513 29.4586ZM1.51666 25.9703C2.10334 27.228 2.84676 28.3995 3.72513 29.4586L5.26462 28.1819C4.49483 27.2537 3.84332 26.2271 3.32917 25.1249L1.51666 25.9703ZM0.0613876 17.7232C-0.185761 20.5523 0.316146 23.3967 1.51666 25.9703L3.32917 25.1249C2.27706 22.8694 1.8372 20.3767 2.0538 17.8973L0.0613876 17.7232ZM2.92463 9.85341C1.29603 12.1799 0.308536 14.8941 0.0613875 17.7232L2.0538 17.8973C2.2704 15.4179 3.13582 13.0393 4.56308 11.0004L2.92463 9.85341ZM5.70449 6.80089C4.65577 7.6917 3.7205 8.71648 2.92463 9.85341L4.56308 11.0004C5.26056 10.004 6.08021 9.10589 6.99929 8.32519L5.70449 6.80089ZM9.10009 5.94318C7.95563 5.69975 6.72021 5.93809 5.70449 6.80089L6.99929 8.32519C7.50995 7.89141 8.10294 7.77583 8.68401 7.89942L9.10009 5.94318ZM11.1692 4.55516C10.1683 4.96976 9.21584 5.48682 8.32656 6.09654L9.45754 7.74606C10.2324 7.21475 11.0624 6.7642 11.9346 6.40292L11.1692 4.55516ZM11.2828 4.50809L11.169 4.55524L11.9348 6.40283L12.0485 6.35569L11.2828 4.50809ZM36.7354 28.1819C36.2197 28.8037 35.488 29.0044 34.7353 28.8407L34.3102 30.795C35.7018 31.0977 37.2256 30.7239 38.2749 29.4586L36.7354 28.1819ZM38.6709 25.1249C38.1567 26.2271 37.5052 27.2537 36.7354 28.1819L38.2749 29.4586C39.1533 28.3995 39.8967 27.228 40.4834 25.9703L38.6709 25.1249ZM39.9462 17.8973C40.1628 20.3767 39.723 22.8694 38.6709 25.1249L40.4834 25.9703C41.6839 23.3967 42.1858 20.5523 41.9386 17.7232L39.9462 17.8973ZM37.4369 11.0004C38.8642 13.0393 39.7296 15.4179 39.9462 17.8973L41.9386 17.7232C41.6915 14.8941 40.704 12.1799 39.0754 9.85341L37.4369 11.0004ZM35.0007 8.32519C35.9198 9.10589 36.7395 10.004 37.4369 11.0004L39.0754 9.85341C38.2795 8.71648 37.3443 7.6917 36.2955 6.80089L35.0007 8.32519ZM33.316 7.89943C33.8971 7.77582 34.4901 7.89141 35.0007 8.32519L36.2955 6.80089C35.2798 5.93808 34.0443 5.69975 32.8999 5.94319L33.316 7.89943ZM30.0654 6.40292C30.9376 6.7642 31.7675 7.21475 32.5424 7.74607L33.6734 6.09655C32.7841 5.48682 31.8317 4.96977 30.8307 4.55516L30.0654 6.40292ZM29.9513 6.35565C29.989 6.37125 30.027 6.38703 30.0654 6.40292L30.8307 4.55516C30.7927 4.53941 30.755 4.52376 30.7173 4.50813L29.9513 6.35565ZM28.2196 5.65483C28.2476 5.49818 28.2709 5.5812 28.1476 5.66771C28.0377 5.74485 27.9781 5.70496 28.1265 5.72023C28.2729 5.73529 28.4964 5.79135 28.8273 5.90902C29.1513 6.02426 29.5187 6.17628 29.9513 6.35564L30.7173 4.50813C30.298 4.33428 29.8796 4.16056 29.4975 4.02464C29.1221 3.89114 28.7188 3.7706 28.3311 3.73073C27.9455 3.69106 27.4444 3.7179 26.9989 4.03053C26.54 4.35253 26.3335 4.83979 26.2508 5.30324L28.2196 5.65483ZM27.4391 8.83572C27.6511 8.87988 27.797 8.99091 27.8801 9.07884C27.957 9.16028 27.9905 9.23145 27.9995 9.25143C28.0152 9.28663 28.0018 9.26975 27.9856 9.15791C27.9551 8.94739 27.9436 8.61414 27.9566 8.18962C27.9823 7.35316 28.0968 6.34279 28.2196 5.65483L26.2508 5.30324C26.1119 6.08075 25.9864 7.18822 25.9576 8.12824C25.9433 8.59195 25.9508 9.06159 26.0062 9.4444C26.033 9.62922 26.0792 9.85662 26.1739 10.0682C26.2504 10.2393 26.4849 10.6799 27.0312 10.7937L27.4391 8.83572ZM28.0805 8.90766C27.8142 8.88883 27.6217 8.87376 27.4391 8.83572L27.0312 10.7937C27.3673 10.8637 27.6936 10.8853 27.9395 10.9027L28.0805 8.90766ZM31.584 11.7957C31.1929 10.6456 30.6783 9.87124 29.9667 9.41624C29.2755 8.97435 28.5395 8.94011 28.0805 8.90766L27.9395 10.9027C28.4649 10.9398 28.6895 10.9735 28.8893 11.1013C29.0687 11.2159 29.3754 11.513 29.6904 12.4395L31.584 11.7957ZM31.8062 11.6296C31.6522 11.5887 31.585 11.5687 31.523 11.5401C31.4752 11.5181 31.4186 11.4848 31.3443 11.4105L29.9301 12.8247C30.45 13.3447 30.973 13.4776 31.2929 13.5626L31.8062 11.6296ZM33.9164 13.6715C33.634 12.9899 33.315 12.4929 32.9033 12.151C32.4788 11.7985 32.0452 11.693 31.8062 11.6296L31.2929 13.5626C31.5366 13.6273 31.5742 13.647 31.6255 13.6896C31.6895 13.7427 31.8506 13.9107 32.0686 14.4369L33.9164 13.6715ZM35.0817 18.9217C35.0817 18.1973 34.9021 17.1667 34.6847 16.2278C34.4645 15.2767 34.1775 14.3021 33.9164 13.6715L32.0686 14.4369C32.2698 14.9227 32.5275 15.7776 32.7363 16.6791C32.9479 17.5928 33.0817 18.4377 33.0817 18.9217H35.0817ZM34.3052 22.8257C34.8178 21.588 35.0817 20.2614 35.0817 18.9217H33.0817C33.0817 19.9988 32.8696 21.0653 32.4574 22.0604L34.3052 22.8257ZM32.0937 26.1354C33.041 25.1881 33.7925 24.0635 34.3052 22.8257L32.4574 22.0604C32.0452 23.0555 31.4411 23.9596 30.6795 24.7212L32.0937 26.1354ZM28.9096 28.6282C30.2388 27.8436 31.1937 27.0355 32.0937 26.1354L30.6795 24.7212C29.8706 25.5301 29.0468 26.2248 27.893 26.9058L28.9096 28.6282ZM27.3636 29.3178C27.7917 29.1612 28.3464 28.9605 28.9096 28.6282L27.893 26.9058C27.5088 27.1326 27.1185 27.2778 26.6762 27.4396L27.3636 29.3178ZM26.2043 29.9633C26.3474 29.729 26.5863 29.6023 27.3636 29.3178L26.6762 27.4396C26.0427 27.6715 25.0666 27.9894 24.4977 28.9204L26.2043 29.9633ZM27.1311 32.1115C26.6726 31.6852 26.3581 31.2042 26.213 30.7827C26.0663 30.3564 26.1217 30.0984 26.2043 29.9633L24.4977 28.9204C24.0046 29.7273 24.0532 30.6531 24.3219 31.4336C24.5922 32.219 25.1151 32.968 25.7691 33.5762L27.1311 32.1115ZM29.1809 31.7929C28.5913 32.0425 28.1576 32.219 27.7808 32.2728C27.4666 32.3177 27.2954 32.2644 27.1311 32.1115L25.7691 33.5762C26.4848 34.2417 27.3162 34.3594 28.0636 34.2527C28.7482 34.1549 29.4348 33.8572 29.9606 33.6347L29.1809 31.7929ZM30.1201 31.4197C29.7946 31.5327 29.4695 31.6707 29.1809 31.7929L29.9606 33.6347C30.2614 33.5073 30.5243 33.3964 30.7761 33.309L30.1201 31.4197ZM33.86 29.069C32.7367 30.063 31.4547 30.865 30.0654 31.4405L30.8307 33.2882C32.4251 32.6278 33.8964 31.7075 35.1855 30.5667L33.86 29.069Z" fill="white" mask="url(#path-3-outside-1)"/>
</svg>
