<svg width="46" height="42" viewBox="0 0 46 42" fill="none" xmlns="http://www.w3.org/2000/svg">
<path d="M44.9812 37.6254C45.2125 37.2248 44.977 36.6558 44.4551 36.3545L38.8497 33.1182C38.3278 32.8169 37.7173 32.8974 37.486 33.298L35.7398 36.3226C35.5085 36.7232 35.744 37.2922 36.2659 37.5935L41.8713 40.8298C42.3932 41.1311 43.0037 41.0506 43.235 40.65L44.9812 37.6254Z" fill="#0057D9"/>
<path fill-rule="evenodd" clip-rule="evenodd" d="M15.811 12.0275C17.1886 9.64151 16.4618 6.64287 14.1876 5.32987L7.49988 1.03954C7.175 0.851968 6.7521 0.976234 6.5553 1.31709L5.10888 3.82237C4.91208 4.16323 5.01592 4.59161 5.3408 4.77918L10.8172 8.37015C11.7918 8.93286 12.1033 10.218 11.5129 11.2406L10.6126 12.8C9.23501 15.1861 9.96185 18.1847 12.236 19.4977L16.0962 21.7264C16.4211 21.9139 16.844 21.7897 17.0408 21.4488L18.4872 18.9435C18.684 18.6027 18.5802 18.1743 18.2553 17.9867L15.0182 16.1178C14.3684 15.7427 14.1608 14.8859 14.5544 14.2042L15.811 12.0275Z" fill="#404040"/>
<path d="M43.0139 26.7824C43.2952 26.2951 43.1283 25.6719 42.6409 25.3906L21.0741 12.939C20.5868 12.6576 19.9637 12.8246 19.6823 13.3119L11.7209 27.1015C11.4395 27.5889 11.6065 28.212 12.0938 28.4934L33.6606 40.945C34.1479 41.2263 34.7711 41.0593 35.0524 40.572L43.0139 26.7824Z" fill="#404040"/>
</svg>
